<?xml version="1.0" encoding="utf-8"?>
<!-- Generator: Adobe Illustrator 22.1.0, SVG Export Plug-In . SVG Version: 6.00 Build 0)  -->
<svg version="1.1" id="Capa_1" xmlns="http://www.w3.org/2000/svg" xmlns:xlink="http://www.w3.org/1999/xlink" x="0px" y="0px"
	 viewBox="0 0 932 932" style="enable-background:new 0 0 932 932;" xml:space="preserve">
<style type="text/css">
	.st0{fill:#DBA520;}
	.st1{fill:#0000BB;}
</style>
<path class="st0" d="M402.2,94.5c-7.9-23.2-29.8-39.9-55.7-39.9c-32.5,0-58.8,26.3-58.8,58.8c0,1.8,0.1,3.6,0.3,5.4
	c-8.1-3.5-17.1-5.4-26.5-5.4c-37.3,0-67.6,30.3-67.6,67.6c0,8.1,1.4,16,4.1,23.2c-26.9,4.3-47.5,27.6-47.5,55.8
	c0,1.6,0.1,3.1,0.2,4.7h632.7c0.2-1.6,0.4-3.1,0.4-4.7c0-25.1-18.7-45.8-42.9-49.1c0.1-1.5,0.2-2.9,0.2-4.4
	c0-20.2-12.1-37.6-29.5-45.3c0.8-4.4,1.3-8.9,1.3-13.5c0-39.1-31.7-70.9-70.9-70.9c-1.1,0-2.3,0-3.4,0.1C627.1,32.6,586.8,0,539,0
	c-52.4,0-95.7,39.1-102.3,89.6c-3.1-0.5-6.2-0.8-9.4-0.8C418.3,88.9,409.8,90.9,402.2,94.5z"/>
<polygon class="st1" points="361.7,932 435.8,932 435.8,316.4 435.8,299.6 311.1,299.6 312.5,316.4 "/>
<polygon class="st1" points="496.2,932 570.4,932 619.5,316.4 620.9,299.6 496.2,299.6 496.2,316.4 "/>
<polygon class="st1" points="681.3,299.6 680,316.4 630.8,932 709.5,932 802.5,299.6 762.3,299.6 "/>
<polygon class="st1" points="166.8,299.6 129.5,299.6 224.9,932 301.2,932 252,316.4 250.7,299.6 "/>
</svg>
