<?xml version="1.0" encoding="UTF-8" standalone="no"?>
<svg
   xmlns:dc="http://purl.org/dc/elements/1.1/"
   xmlns:cc="http://creativecommons.org/ns#"
   xmlns:rdf="http://www.w3.org/1999/02/22-rdf-syntax-ns#"
   xmlns:svg="http://www.w3.org/2000/svg"
   xmlns="http://www.w3.org/2000/svg"
   id="svg1289"
   version="1.1"
   viewBox="0 0 1000 600">
  <metadata
     id="metadata1293">
    <rdf:RDF>
      <cc:Work
         rdf:about="">
        <dc:format>image/svg+xml</dc:format>
        <dc:type
           rdf:resource="http://purl.org/dc/dcmitype/StillImage" />
        <dc:title></dc:title>
      </cc:Work>
    </rdf:RDF>
  </metadata>
  <defs
     id="defs867">
    <marker
       orient="auto"
       markerUnits="userSpaceOnUse"
       markerHeight="30"
       markerWidth="30"
       refY="6"
       refX="6"
       id="triangle">
      <path
         id="path864"
         fill="black"
         d="M 0 0 12 6 0 12 3 6" />
    </marker>
  </defs>
  <g
     id="g925"
     text-anchor="start"
     font-family="sans-serif"
     font-size="10"
     fill="none"
     style="stroke-dasharray: 5, 5;"
     transform="translate(50, 0)"
     class="grid">
    <path
       id="path869"
       style="opacity: 0;"
       d="M0.5,550.5V50.5"
       stroke="currentColor"
       class="domain" />
    <g
       id="g875"
       transform="translate(0,550.5)"
       opacity="1"
       class="tick">
      <line
         id="line871"
         x2="900"
         stroke="currentColor" />
      <text
         id="text873"
         dy="0.32em"
         x="903"
         fill="currentColor" />
    </g>
    <g
       id="g881"
       transform="translate(0, 488.5)"
       opacity="1"
       class="tick">
      <line
         id="line877"
         x2="900"
         stroke="currentColor" />
      <text
         id="text879"
         dy="0.32em"
         x="903"
         fill="currentColor" />
    </g>
    <g
       id="g887"
       transform="translate(0, 425.5)"
       opacity="1"
       class="tick">
      <line
         id="line883"
         x2="900"
         stroke="currentColor" />
      <text
         id="text885"
         dy="0.32em"
         x="903"
         fill="currentColor" />
    </g>
    <g
       id="g893"
       transform="translate(0, 363.5)"
       opacity="1"
       class="tick">
      <line
         id="line889"
         x2="900"
         stroke="currentColor" />
      <text
         id="text891"
         dy="0.32em"
         x="903"
         fill="currentColor" />
    </g>
    <g
       id="g899"
       transform="translate(0, 300.5)"
       opacity="1"
       class="tick">
      <line
         id="line895"
         x2="900"
         stroke="currentColor" />
      <text
         id="text897"
         dy="0.32em"
         x="903"
         fill="currentColor" />
    </g>
    <g
       id="g905"
       transform="translate(0, 238.5)"
       opacity="1"
       class="tick">
      <line
         id="line901"
         x2="900"
         stroke="currentColor" />
      <text
         id="text903"
         dy="0.32em"
         x="903"
         fill="currentColor" />
    </g>
    <g
       id="g911"
       transform="translate(0, 175.5)"
       opacity="1"
       class="tick">
      <line
         id="line907"
         x2="900"
         stroke="currentColor" />
      <text
         id="text909"
         dy="0.32em"
         x="903"
         fill="currentColor" />
    </g>
    <g
       id="g917"
       transform="translate(0, 113.5)"
       opacity="1"
       class="tick">
      <line
         id="line913"
         x2="900"
         stroke="currentColor" />
      <text
         id="text915"
         dy="0.32em"
         x="903"
         fill="currentColor" />
    </g>
    <g
       id="g923"
       transform="translate(0, 50.5)"
       opacity="1"
       class="tick">
      <line
         id="line919"
         x2="900"
         stroke="currentColor" />
      <text
         id="text921"
         dy="0.32em"
         x="903"
         fill="currentColor" />
    </g>
  </g>
  <g
     id="g1049"
     text-anchor="middle"
     font-family="sans-serif"
     font-size="10"
     fill="none"
     transform="translate(0, 550)"
     class="xAxis">
    <path
       id="path927"
       marker-end="url(#triangle)"
       d="M50.5,0.5H950.5"
       stroke="currentColor"
       class="domain" />
    <g
       id="g933"
       transform="translate(65.5,0)"
       opacity="1"
       class="tick">
      <line
         id="line929"
         y2="0"
         stroke="currentColor" />
      <text
         id="text931"
         dy="0.71em"
         y="8"
         fill="currentColor">1940</text>
    </g>
    <g
       id="g939"
       transform="translate(109.5,0)"
       opacity="1"
       class="tick">
      <line
         id="line935"
         y2="0"
         stroke="currentColor" />
      <text
         id="text937"
         dy="0.71em"
         y="8"
         fill="currentColor">1944</text>
    </g>
    <g
       id="g945"
       transform="translate(153.5,0)"
       opacity="1"
       class="tick">
      <line
         id="line941"
         y2="0"
         stroke="currentColor" />
      <text
         id="text943"
         dy="0.71em"
         y="8"
         fill="currentColor">1948</text>
    </g>
    <g
       id="g951"
       transform="translate(197.5,0)"
       opacity="1"
       class="tick">
      <line
         id="line947"
         y2="0"
         stroke="currentColor" />
      <text
         id="text949"
         dy="0.71em"
         y="8"
         fill="currentColor">1952</text>
    </g>
    <g
       id="g957"
       transform="translate(241.5,0)"
       opacity="1"
       class="tick">
      <line
         id="line953"
         y2="0"
         stroke="currentColor" />
      <text
         id="text955"
         dy="0.71em"
         y="8"
         fill="currentColor">1956</text>
    </g>
    <g
       id="g963"
       transform="translate(285.5,0)"
       opacity="1"
       class="tick">
      <line
         id="line959"
         y2="0"
         stroke="currentColor" />
      <text
         id="text961"
         dy="0.71em"
         y="8"
         fill="currentColor">1960</text>
    </g>
    <g
       id="g969"
       transform="translate(329.5,0)"
       opacity="1"
       class="tick">
      <line
         id="line965"
         y2="0"
         stroke="currentColor" />
      <text
         id="text967"
         dy="0.71em"
         y="8"
         fill="currentColor">1964</text>
    </g>
    <g
       id="g975"
       transform="translate(373.5,0)"
       opacity="1"
       class="tick">
      <line
         id="line971"
         y2="0"
         stroke="currentColor" />
      <text
         id="text973"
         dy="0.71em"
         y="8"
         fill="currentColor">1968</text>
    </g>
    <g
       id="g981"
       transform="translate(417.5,0)"
       opacity="1"
       class="tick">
      <line
         id="line977"
         y2="0"
         stroke="currentColor" />
      <text
         id="text979"
         dy="0.71em"
         y="8"
         fill="currentColor">1972</text>
    </g>
    <g
       id="g987"
       transform="translate(461.5,0)"
       opacity="1"
       class="tick">
      <line
         id="line983"
         y2="0"
         stroke="currentColor" />
      <text
         id="text985"
         dy="0.71em"
         y="8"
         fill="currentColor">1976</text>
    </g>
    <g
       id="g993"
       transform="translate(505.5,0)"
       opacity="1"
       class="tick">
      <line
         id="line989"
         y2="0"
         stroke="currentColor" />
      <text
         id="text991"
         dy="0.71em"
         y="8"
         fill="currentColor">1980</text>
    </g>
    <g
       id="g999"
       transform="translate(549.5,0)"
       opacity="1"
       class="tick">
      <line
         id="line995"
         y2="0"
         stroke="currentColor" />
      <text
         id="text997"
         dy="0.71em"
         y="8"
         fill="currentColor">1984</text>
    </g>
    <g
       id="g1005"
       transform="translate(593.5,0)"
       opacity="1"
       class="tick">
      <line
         id="line1001"
         y2="0"
         stroke="currentColor" />
      <text
         id="text1003"
         dy="0.71em"
         y="8"
         fill="currentColor">1988</text>
    </g>
    <g
       id="g1011"
       transform="translate(637.5,0)"
       opacity="1"
       class="tick">
      <line
         id="line1007"
         y2="0"
         stroke="currentColor" />
      <text
         id="text1009"
         dy="0.71em"
         y="8"
         fill="currentColor">1992</text>
    </g>
    <g
       id="g1017"
       transform="translate(681.5,0)"
       opacity="1"
       class="tick">
      <line
         id="line1013"
         y2="0"
         stroke="currentColor" />
      <text
         id="text1015"
         dy="0.71em"
         y="8"
         fill="currentColor">1996</text>
    </g>
    <g
       id="g1023"
       transform="translate(725.5,0)"
       opacity="1"
       class="tick">
      <line
         id="line1019"
         y2="0"
         stroke="currentColor" />
      <text
         id="text1021"
         dy="0.71em"
         y="8"
         fill="currentColor">2000</text>
    </g>
    <g
       id="g1029"
       transform="translate(769.5,0)"
       opacity="1"
       class="tick">
      <line
         id="line1025"
         y2="0"
         stroke="currentColor" />
      <text
         id="text1027"
         dy="0.71em"
         y="8"
         fill="currentColor">2004</text>
    </g>
    <g
       id="g1035"
       transform="translate(813.5,0)"
       opacity="1"
       class="tick">
      <line
         id="line1031"
         y2="0"
         stroke="currentColor" />
      <text
         id="text1033"
         dy="0.71em"
         y="8"
         fill="currentColor">2008</text>
    </g>
    <g
       id="g1041"
       transform="translate(857.5,0)"
       opacity="1"
       class="tick">
      <line
         id="line1037"
         y2="0"
         stroke="currentColor" />
      <text
         id="text1039"
         dy="0.71em"
         y="8"
         fill="currentColor">2012</text>
    </g>
    <g
       id="g1047"
       transform="translate(901.5,0)"
       opacity="1"
       class="tick">
      <line
         id="line1043"
         y2="0"
         stroke="currentColor" />
      <text
         id="text1045"
         dy="0.71em"
         y="8"
         fill="currentColor">2016</text>
    </g>
  </g>
  <g
     id="g1107"
     text-anchor="end"
     font-family="sans-serif"
     font-size="10"
     fill="none"
     transform="translate(50, 0)"
     class="yAxis">
    <path
       id="path1051"
       d="M0.5,550.5V50.5"
       stroke="currentColor"
       class="domain" />
    <g
       id="g1057"
       transform="translate(0,550.5)"
       opacity="1"
       class="tick">
      <line
         id="line1053"
         x2="-6"
         stroke="currentColor" />
      <text
         id="text1055"
         dy="0.32em"
         x="-9"
         fill="currentColor">0 %</text>
    </g>
    <g
       id="g1063"
       transform="translate(0, 488.5)"
       opacity="1"
       class="tick">
      <line
         id="line1059"
         x2="-6"
         stroke="currentColor" />
      <text
         id="text1061"
         dy="0.32em"
         x="-9"
         fill="currentColor">10 %</text>
    </g>
    <g
       id="g1069"
       transform="translate(0, 425.5)"
       opacity="1"
       class="tick">
      <line
         id="line1065"
         x2="-6"
         stroke="currentColor" />
      <text
         id="text1067"
         dy="0.32em"
         x="-9"
         fill="currentColor">20 %</text>
    </g>
    <g
       id="g1075"
       transform="translate(0, 363.5)"
       opacity="1"
       class="tick">
      <line
         id="line1071"
         x2="-6"
         stroke="currentColor" />
      <text
         id="text1073"
         dy="0.32em"
         x="-9"
         fill="currentColor">30 %</text>
    </g>
    <g
       id="g1081"
       transform="translate(0, 300.5)"
       opacity="1"
       class="tick">
      <line
         id="line1077"
         x2="-6"
         stroke="currentColor" />
      <text
         id="text1079"
         dy="0.32em"
         x="-9"
         fill="currentColor">40 %</text>
    </g>
    <g
       id="g1087"
       transform="translate(0, 238.5)"
       opacity="1"
       class="tick">
      <line
         id="line1083"
         x2="-6"
         stroke="currentColor" />
      <text
         id="text1085"
         dy="0.32em"
         x="-9"
         fill="currentColor">50 %</text>
    </g>
    <g
       id="g1093"
       transform="translate(0, 175.5)"
       opacity="1"
       class="tick">
      <line
         id="line1089"
         x2="-6"
         stroke="currentColor" />
      <text
         id="text1091"
         dy="0.32em"
         x="-9"
         fill="currentColor">60 %</text>
    </g>
    <g
       id="g1099"
       transform="translate(0, 113.5)"
       opacity="1"
       class="tick">
      <line
         id="line1095"
         x2="-6"
         stroke="currentColor" />
      <text
         id="text1097"
         dy="0.32em"
         x="-9"
         fill="currentColor">70 %</text>
    </g>
    <g
       id="g1105"
       transform="translate(0, 50.5)"
       opacity="1"
       class="tick">
      <line
         id="line1101"
         x2="-6"
         stroke="currentColor" />
      <text
         id="text1103"
         dy="0.32em"
         x="-9"
         fill="currentColor">80 %</text>
    </g>
  </g>
  <path
     id="path1109"
     stroke-dashoffset="0"
     stroke-dasharray="none"
     style="stroke: rgb(219, 165, 32); stroke-width: 3; fill: none;"
     class="line"
     d="M60,380L71,380L71,375L82,375L82,550L93,550L93,323L104,323L104,454L115,454L115,550L126,550L126,550L137,550L137,550L148,550L148,550L159,550L159,300L170,300L170,446L181,446L181,414L192,414L192,472L203,472L203,418L214,418L214,523L225,523L225,472L236,472L236,498L247,498L247,331L258,331L258,411L269,411L269,550L280,550L280,382L291,382L291,411L302,411L302,431L313,431L313,294L324,294L324,403L335,403L335,504L346,504L346,461L357,461L357,375L368,375L368,425L379,425L379,461L390,461L390,363L401,363L401,550L412,550L412,519L423,519L423,383L434,383L434,550L445,550L445,550L456,550L456,300L467,300L467,467L478,467L478,446L489,446L489,524L500,524L500,488L511,488L511,500L522,500L522,411L533,411L533,483L544,483L544,472L555,472L555,388L566,388L566,483L577,483L577,394L588,394L588,504L599,504L599,483L610,483L610,461L621,461L621,454L632,454L632,461L643,461L643,550L654,550L654,505L665,505L665,528L676,528L676,434L687,434L687,461L698,461L698,505L709,505L709,505L720,505L720,505L731,505L731,260L742,260L742,394L753,394L753,438L764,438L764,304L775,304L775,438L786,438L786,461L797,461L797,483L808,483L808,461L819,461L819,505L830,505L830,323L841,323L841,300L852,300L852,403L863,403L863,293L874,293L874,403L885,403L885,380L896,380L896,304L907,304L907,458L918,458L918,394L929,394L929,434L940,434" />
  <path
     id="path1111"
     stroke-dashoffset="0"
     stroke-dasharray="none"
     style="stroke: rgb(0, 0, 187); stroke-width: 3; fill: none;"
     class="line"
     d="M60,425L71,425L71,394L82,394L82,550L93,550L93,394L104,394L104,461L115,461L115,550L126,550L126,550L137,550L137,511L148,511L148,433L159,433L159,454L170,454L170,425L181,425L181,502L192,502L192,505L203,505L203,383L214,383L214,456L225,456L225,425L236,425L236,467L247,467L247,331L258,331L258,425L269,425L269,383L280,383L280,394L291,394L291,425L302,425L302,425L313,425L313,300L324,300L324,363L335,363L335,456L346,456L346,425L357,425L357,456L368,456L368,363L379,363L379,456L390,456L390,394L401,394L401,425L412,425L412,488L423,488L423,456L434,456L434,425L445,425L445,456L456,456L456,363L467,363L467,519L478,519L478,425L489,425L489,456L500,456L500,425L511,425L511,394L522,394L522,331L533,331L533,331L544,331L544,394L555,394L555,394L566,394L566,300L577,300L577,363L588,363L588,488L599,488L599,363L610,363L610,425L621,425L621,425L632,425L632,425L643,425L643,456L654,456L654,425L665,425L665,394L676,394L676,238L687,238L687,300L698,300L698,363L709,363L709,363L720,363L720,331L731,331L731,269L742,269L742,269L753,269L753,206L764,206L764,363L775,363L775,238L786,238L786,206L797,206L797,269L808,269L808,175L819,175L819,238L830,238L830,144L841,144L841,175L852,175L852,81L863,81L863,144L874,144L874,144L885,144L885,50L896,50L896,113L907,113L907,50L918,50L918,175L929,175L929,175L940,175" />
  <g
     id="g1273">
    <rect
       id="rect1113"
       style="opacity: 0.4; cursor: pointer;"
       height="45"
       width="11"
       y="380"
       x="60"
       fill="rgb(255, 227, 51)" />
    <rect
       id="rect1115"
       style="opacity: 0.4; cursor: pointer;"
       height="19"
       width="11"
       y="375"
       x="71"
       fill="#FFE333" />
    <rect
       id="rect1117"
       style="opacity: 0.4; cursor: pointer;"
       height="0"
       width="11"
       y="550"
       x="82"
       fill="rgb(51, 165, 255)" />
    <rect
       id="rect1119"
       style="opacity: 0.4; cursor: pointer;"
       height="71"
       width="11"
       y="323"
       x="93"
       fill="#FFE333" />
    <rect
       id="rect1121"
       style="opacity: 0.4; cursor: pointer;"
       height="7"
       width="11"
       y="454"
       x="104"
       fill="#FFE333" />
    <rect
       id="rect1123"
       style="opacity: 0.4; cursor: pointer;"
       height="0"
       width="11"
       y="550"
       x="115"
       fill="rgb(51, 165, 255)" />
    <rect
       id="rect1125"
       style="opacity: 0.4; cursor: pointer;"
       height="0"
       width="11"
       y="550"
       x="126"
       fill="rgb(51, 165, 255)" />
    <rect
       id="rect1127"
       style="opacity: 0.4; cursor: pointer;"
       height="39"
       width="11"
       y="511"
       x="137"
       fill="rgb(51, 165, 255)" />
    <rect
       id="rect1129"
       style="opacity: 0.4; cursor: pointer;"
       height="117"
       width="11"
       y="433"
       x="148"
       fill="rgb(51, 165, 255)" />
    <rect
       id="rect1131"
       style="opacity: 0.4; cursor: pointer;"
       height="154"
       width="11"
       y="300"
       x="159"
       fill="rgb(255, 227, 51)" />
    <rect
       id="rect1133"
       style="opacity: 0.4; cursor: pointer;"
       height="21"
       width="11"
       y="425"
       x="170"
       fill="rgb(51, 165, 255)" />
    <rect
       id="rect1135"
       style="opacity: 0.4; cursor: pointer;"
       height="88"
       width="11"
       y="414"
       x="181"
       fill="#FFE333" />
    <rect
       id="rect1137"
       style="opacity: 0.4; cursor: pointer;"
       height="33"
       width="11"
       y="472"
       x="192"
       fill="rgb(255, 227, 51)" />
    <rect
       id="rect1139"
       style="opacity: 0.4; cursor: pointer;"
       height="35"
       width="11"
       y="383"
       x="203"
       fill="rgb(51, 165, 255)" />
    <rect
       id="rect1141"
       style="opacity: 0.4; cursor: pointer;"
       height="67"
       width="11"
       y="456"
       x="214"
       fill="rgb(51, 165, 255)" />
    <rect
       id="rect1143"
       style="opacity: 0.4; cursor: pointer;"
       height="47"
       width="11"
       y="425"
       x="225"
       fill="rgb(51, 165, 255)" />
    <rect
       id="rect1145"
       style="opacity: 0.4; cursor: pointer;"
       height="31"
       width="11"
       y="467"
       x="236"
       fill="rgb(51, 165, 255)" />
    <rect
       id="rect1147"
       style="opacity: 0.4; cursor: pointer;"
       height="0"
       width="11"
       y="331"
       x="247"
       fill="rgb(51, 165, 255)" />
    <rect
       id="rect1149"
       style="opacity: 0.4; cursor: pointer;"
       height="14"
       width="11"
       y="411"
       x="258"
       fill="rgb(255, 227, 51)" />
    <rect
       id="rect1151"
       style="opacity: 0.4; cursor: pointer;"
       height="167"
       width="11"
       y="383"
       x="269"
       fill="rgb(51, 165, 255)" />
    <rect
       id="rect1153"
       style="opacity: 0.4; cursor: pointer;"
       height="12"
       width="11"
       y="382"
       x="280"
       fill="rgb(255, 227, 51)" />
    <rect
       id="rect1155"
       style="opacity: 0.4; cursor: pointer;"
       height="14"
       width="11"
       y="411"
       x="291"
       fill="rgb(255, 227, 51)" />
    <rect
       id="rect1157"
       style="opacity: 0.4; cursor: pointer;"
       height="6"
       width="11"
       y="425"
       x="302"
       fill="rgb(51, 165, 255)" />
    <rect
       id="rect1159"
       style="opacity: 0.4; cursor: pointer;"
       height="6"
       width="11"
       y="294"
       x="313"
       fill="rgb(255, 227, 51)" />
    <rect
       id="rect1161"
       style="opacity: 0.4; cursor: pointer;"
       height="40"
       width="11"
       y="363"
       x="324"
       fill="rgb(51, 165, 255)" />
    <rect
       id="rect1163"
       style="opacity: 0.4; cursor: pointer;"
       height="48"
       width="11"
       y="456"
       x="335"
       fill="rgb(51, 165, 255)" />
    <rect
       id="rect1165"
       style="opacity: 0.4; cursor: pointer;"
       height="36"
       width="11"
       y="425"
       x="346"
       fill="rgb(51, 165, 255)" />
    <rect
       id="rect1167"
       style="opacity: 0.4; cursor: pointer;"
       height="81"
       width="11"
       y="375"
       x="357"
       fill="rgb(255, 227, 51)" />
    <rect
       id="rect1169"
       style="opacity: 0.4; cursor: pointer;"
       height="62"
       width="11"
       y="363"
       x="368"
       fill="rgb(51, 165, 255)" />
    <rect
       id="rect1171"
       style="opacity: 0.4; cursor: pointer;"
       height="5"
       width="11"
       y="456"
       x="379"
       fill="rgb(51, 165, 255)" />
    <rect
       id="rect1173"
       style="opacity: 0.4; cursor: pointer;"
       height="31"
       width="11"
       y="363"
       x="390"
       fill="rgb(255, 227, 51)" />
    <rect
       id="rect1175"
       style="opacity: 0.4; cursor: pointer;"
       height="125"
       width="11"
       y="425"
       x="401"
       fill="rgb(51, 165, 255)" />
    <rect
       id="rect1177"
       style="opacity: 0.4; cursor: pointer;"
       height="31"
       width="11"
       y="488"
       x="412"
       fill="rgb(51, 165, 255)" />
    <rect
       id="rect1179"
       style="opacity: 0.4; cursor: pointer;"
       height="73"
       width="11"
       y="383"
       x="423"
       fill="rgb(255, 227, 51)" />
    <rect
       id="rect1181"
       style="opacity: 0.4; cursor: pointer;"
       height="125"
       width="11"
       y="425"
       x="434"
       fill="rgb(51, 165, 255)" />
    <rect
       id="rect1183"
       style="opacity: 0.4; cursor: pointer;"
       height="94"
       width="11"
       y="456"
       x="445"
       fill="rgb(51, 165, 255)" />
    <rect
       id="rect1185"
       style="opacity: 0.4; cursor: pointer;"
       height="63"
       width="11"
       y="300"
       x="456"
       fill="rgb(255, 227, 51)" />
    <rect
       id="rect1187"
       style="opacity: 0.4; cursor: pointer;"
       height="52"
       width="11"
       y="467"
       x="467"
       fill="rgb(255, 227, 51)" />
    <rect
       id="rect1189"
       style="opacity: 0.4; cursor: pointer;"
       height="21"
       width="11"
       y="425"
       x="478"
       fill="rgb(51, 165, 255)" />
    <rect
       id="rect1191"
       style="opacity: 0.4; cursor: pointer;"
       height="68"
       width="11"
       y="456"
       x="489"
       fill="rgb(51, 165, 255)" />
    <rect
       id="rect1193"
       style="opacity: 0.4; cursor: pointer;"
       height="63"
       width="11"
       y="425"
       x="500"
       fill="rgb(51, 165, 255)" />
    <rect
       id="rect1195"
       style="opacity: 0.4; cursor: pointer;"
       height="106"
       width="11"
       y="394"
       x="511"
       fill="rgb(51, 165, 255)" />
    <rect
       id="rect1197"
       style="opacity: 0.4; cursor: pointer;"
       height="80"
       width="11"
       y="331"
       x="522"
       fill="rgb(51, 165, 255)" />
    <rect
       id="rect1199"
       style="opacity: 0.4; cursor: pointer;"
       height="152"
       width="11"
       y="331"
       x="533"
       fill="rgb(51, 165, 255)" />
    <rect
       id="rect1201"
       style="opacity: 0.4; cursor: pointer;"
       height="78"
       width="11"
       y="394"
       x="544"
       fill="rgb(51, 165, 255)" />
    <rect
       id="rect1203"
       style="opacity: 0.4; cursor: pointer;"
       height="6"
       width="11"
       y="388"
       x="555"
       fill="rgb(255, 227, 51)" />
    <rect
       id="rect1205"
       style="opacity: 0.4; cursor: pointer;"
       height="183"
       width="11"
       y="300"
       x="566"
       fill="rgb(51, 165, 255)" />
    <rect
       id="rect1207"
       style="opacity: 0.4; cursor: pointer;"
       height="31"
       width="11"
       y="363"
       x="577"
       fill="rgb(51, 165, 255)" />
    <rect
       id="rect1209"
       style="opacity: 0.4; cursor: pointer;"
       height="16"
       width="11"
       y="488"
       x="588"
       fill="rgb(51, 165, 255)" />
    <rect
       id="rect1211"
       style="opacity: 0.4; cursor: pointer;"
       height="120"
       width="11"
       y="363"
       x="599"
       fill="rgb(51, 165, 255)" />
    <rect
       id="rect1213"
       style="opacity: 0.4; cursor: pointer;"
       height="36"
       width="11"
       y="425"
       x="610"
       fill="rgb(51, 165, 255)" />
    <rect
       id="rect1215"
       style="opacity: 0.4; cursor: pointer;"
       height="29"
       width="11"
       y="425"
       x="621"
       fill="rgb(51, 165, 255)" />
    <rect
       id="rect1217"
       style="opacity: 0.4; cursor: pointer;"
       height="36"
       width="11"
       y="425"
       x="632"
       fill="rgb(51, 165, 255)" />
    <rect
       id="rect1219"
       style="opacity: 0.4; cursor: pointer;"
       height="94"
       width="11"
       y="456"
       x="643"
       fill="rgb(51, 165, 255)" />
    <rect
       id="rect1221"
       style="opacity: 0.4; cursor: pointer;"
       height="80"
       width="11"
       y="425"
       x="654"
       fill="rgb(51, 165, 255)" />
    <rect
       id="rect1223"
       style="opacity: 0.4; cursor: pointer;"
       height="134"
       width="11"
       y="394"
       x="665"
       fill="rgb(51, 165, 255)" />
    <rect
       id="rect1225"
       style="opacity: 0.4; cursor: pointer;"
       height="196"
       width="11"
       y="238"
       x="676"
       fill="rgb(51, 165, 255)" />
    <rect
       id="rect1227"
       style="opacity: 0.4; cursor: pointer;"
       height="161"
       width="11"
       y="300"
       x="687"
       fill="rgb(51, 165, 255)" />
    <rect
       id="rect1229"
       style="opacity: 0.4; cursor: pointer;"
       height="142"
       width="11"
       y="363"
       x="698"
       fill="rgb(51, 165, 255)" />
    <rect
       id="rect1231"
       style="opacity: 0.4; cursor: pointer;"
       height="142"
       width="11"
       y="363"
       x="709"
       fill="rgb(51, 165, 255)" />
    <rect
       id="rect1233"
       style="opacity: 0.4; cursor: pointer;"
       height="174"
       width="11"
       y="331"
       x="720"
       fill="rgb(51, 165, 255)" />
    <rect
       id="rect1235"
       style="opacity: 0.4; cursor: pointer;"
       height="9"
       width="11"
       y="260"
       x="731"
       fill="rgb(255, 227, 51)" />
    <rect
       id="rect1237"
       style="opacity: 0.4; cursor: pointer;"
       height="125"
       width="11"
       y="269"
       x="742"
       fill="rgb(51, 165, 255)" />
    <rect
       id="rect1239"
       style="opacity: 0.4; cursor: pointer;"
       height="232"
       width="11"
       y="206"
       x="753"
       fill="rgb(51, 165, 255)" />
    <rect
       id="rect1241"
       style="opacity: 0.4; cursor: pointer;"
       height="59"
       width="11"
       y="304"
       x="764"
       fill="rgb(255, 227, 51)" />
    <rect
       id="rect1243"
       style="opacity: 0.4; cursor: pointer;"
       height="200"
       width="11"
       y="238"
       x="775"
       fill="rgb(51, 165, 255)" />
    <rect
       id="rect1245"
       style="opacity: 0.4; cursor: pointer;"
       height="255"
       width="11"
       y="206"
       x="786"
       fill="rgb(51, 165, 255)" />
    <rect
       id="rect1247"
       style="opacity: 0.4; cursor: pointer;"
       height="214"
       width="11"
       y="269"
       x="797"
       fill="rgb(51, 165, 255)" />
    <rect
       id="rect1249"
       style="opacity: 0.4; cursor: pointer;"
       height="286"
       width="11"
       y="175"
       x="808"
       fill="rgb(51, 165, 255)" />
    <rect
       id="rect1251"
       style="opacity: 0.4; cursor: pointer;"
       height="267"
       width="11"
       y="238"
       x="819"
       fill="rgb(51, 165, 255)" />
    <rect
       id="rect1253"
       style="opacity: 0.4; cursor: pointer;"
       height="179"
       width="11"
       y="144"
       x="830"
       fill="rgb(51, 165, 255)" />
    <rect
       id="rect1255"
       style="opacity: 0.4; cursor: pointer;"
       height="125"
       width="11"
       y="175"
       x="841"
       fill="rgb(51, 165, 255)" />
    <rect
       id="rect1257"
       style="opacity: 0.4; cursor: pointer;"
       height="322"
       width="11"
       y="81"
       x="852"
       fill="rgb(51, 165, 255)" />
    <rect
       id="rect1259"
       style="opacity: 0.4; cursor: pointer;"
       height="149"
       width="11"
       y="144"
       x="863"
       fill="rgb(51, 165, 255)" />
    <rect
       id="rect1261"
       style="opacity: 0.4; cursor: pointer;"
       height="259"
       width="11"
       y="144"
       x="874"
       fill="rgb(51, 165, 255)" />
    <rect
       id="rect1263"
       style="opacity: 0.4; cursor: pointer;"
       height="330"
       width="11"
       y="50"
       x="885"
       fill="rgb(51, 165, 255)" />
    <rect
       id="rect1265"
       style="opacity: 0.4; cursor: pointer;"
       height="191"
       width="11"
       y="113"
       x="896"
       fill="rgb(51, 165, 255)" />
    <rect
       id="rect1267"
       style="opacity: 0.4; cursor: pointer;"
       height="408"
       width="11"
       y="50"
       x="907"
       fill="rgb(51, 165, 255)" />
    <rect
       id="rect1269"
       style="opacity: 0.4; cursor: pointer;"
       height="219"
       width="11"
       y="175"
       x="918"
       fill="rgb(51, 165, 255)" />
    <rect
       id="rect1271"
       style="opacity: 0.4; cursor: pointer;"
       height="259"
       width="11"
       y="175"
       x="929"
       fill="rgb(51, 165, 255)" />
  </g>
  <text
     id="text1275"
     style="font-style: italic;"
     text-anchor="middle"
     y="25"
     x="50">Fréquence</text>
  <text
     id="text1277"
     style="font-style: italic;"
     text-anchor="end"
     y="580"
     x="960">Année</text>
  <g
     id="g1287"
     style="opacity: 1;"
     class="legend">
    <rect
       id="rect1279"
       fill="#DBA520"
       height="3"
       width="40"
       y="13"
       x="320" />
    <text
       id="text1281"
       alignment-baseline="central"
       text-anchor="start"
       y="20"
       x="370">Films nommés aux Oscars</text>
    <rect
       id="rect1283"
       fill="#0000BB"
       height="3"
       width="40"
       y="13"
       x="620" />
    <text
       id="text1285"
       alignment-baseline="central"
       text-anchor="start"
       y="20"
       x="670">Films du top 20 au box office</text>
  </g>
</svg>
