<?xml version="1.0" encoding="UTF-8" standalone="no"?>
<svg
   xmlns:dc="http://purl.org/dc/elements/1.1/"
   xmlns:cc="http://creativecommons.org/ns#"
   xmlns:rdf="http://www.w3.org/1999/02/22-rdf-syntax-ns#"
   xmlns:svg="http://www.w3.org/2000/svg"
   xmlns="http://www.w3.org/2000/svg"
   id="svg451"
   version="1.1"
   viewBox="0 0 1000 600">
  <metadata
     id="metadata455">
    <rdf:RDF>
      <cc:Work
         rdf:about="">
        <dc:format>image/svg+xml</dc:format>
        <dc:type
           rdf:resource="http://purl.org/dc/dcmitype/StillImage" />
        <dc:title></dc:title>
      </cc:Work>
    </rdf:RDF>
  </metadata>
  <defs
     id="defs5">
    <marker
       orient="auto"
       markerUnits="userSpaceOnUse"
       markerHeight="30"
       markerWidth="30"
       refY="6"
       refX="6"
       id="triangle">
      <path
         id="path2"
         fill="black"
         d="M 0 0 12 6 0 12 3 6" />
    </marker>
  </defs>
  <g
     id="g75"
     text-anchor="start"
     font-family="sans-serif"
     font-size="10"
     fill="none"
     style="stroke-dasharray: 5, 5;"
     transform="translate(50, 0)"
     class="grid">
    <path
       id="path7"
       style="opacity: 0;"
       d="M0.5,550.5V50.5"
       stroke="currentColor"
       class="domain" />
    <g
       id="g13"
       transform="translate(0,550.5)"
       opacity="1"
       class="tick">
      <line
         id="line9"
         x2="900"
         stroke="currentColor" />
      <text
         id="text11"
         dy="0.32em"
         x="903"
         fill="currentColor" />
    </g>
    <g
       id="g19"
       transform="translate(0,500.5)"
       opacity="1"
       class="tick">
      <line
         id="line15"
         x2="900"
         stroke="currentColor" />
      <text
         id="text17"
         dy="0.32em"
         x="903"
         fill="currentColor" />
    </g>
    <g
       id="g25"
       transform="translate(0,450.5)"
       opacity="1"
       class="tick">
      <line
         id="line21"
         x2="900"
         stroke="currentColor" />
      <text
         id="text23"
         dy="0.32em"
         x="903"
         fill="currentColor" />
    </g>
    <g
       id="g31"
       transform="translate(0,400.5)"
       opacity="1"
       class="tick">
      <line
         id="line27"
         x2="900"
         stroke="currentColor" />
      <text
         id="text29"
         dy="0.32em"
         x="903"
         fill="currentColor" />
    </g>
    <g
       id="g37"
       transform="translate(0,350.5)"
       opacity="1"
       class="tick">
      <line
         id="line33"
         x2="900"
         stroke="currentColor" />
      <text
         id="text35"
         dy="0.32em"
         x="903"
         fill="currentColor" />
    </g>
    <g
       id="g43"
       transform="translate(0,300.5)"
       opacity="1"
       class="tick">
      <line
         id="line39"
         x2="900"
         stroke="currentColor" />
      <text
         id="text41"
         dy="0.32em"
         x="903"
         fill="currentColor" />
    </g>
    <g
       id="g49"
       transform="translate(0,250.5)"
       opacity="1"
       class="tick">
      <line
         id="line45"
         x2="900"
         stroke="currentColor" />
      <text
         id="text47"
         dy="0.32em"
         x="903"
         fill="currentColor" />
    </g>
    <g
       id="g55"
       transform="translate(0,200.5)"
       opacity="1"
       class="tick">
      <line
         id="line51"
         x2="900"
         stroke="currentColor" />
      <text
         id="text53"
         dy="0.32em"
         x="903"
         fill="currentColor" />
    </g>
    <g
       id="g61"
       transform="translate(0,150.5)"
       opacity="1"
       class="tick">
      <line
         id="line57"
         x2="900"
         stroke="currentColor" />
      <text
         id="text59"
         dy="0.32em"
         x="903"
         fill="currentColor" />
    </g>
    <g
       id="g67"
       transform="translate(0,100.5)"
       opacity="1"
       class="tick">
      <line
         id="line63"
         x2="900"
         stroke="currentColor" />
      <text
         id="text65"
         dy="0.32em"
         x="903"
         fill="currentColor" />
    </g>
    <g
       id="g73"
       transform="translate(0,50.5)"
       opacity="1"
       class="tick">
      <line
         id="line69"
         x2="900"
         stroke="currentColor" />
      <text
         id="text71"
         dy="0.32em"
         x="903"
         fill="currentColor" />
    </g>
  </g>
  <g
     id="g199"
     text-anchor="middle"
     font-family="sans-serif"
     font-size="10"
     fill="none"
     transform="translate(0, 550)"
     class="xAxis">
    <path
       id="path77"
       marker-end="url(#triangle)"
       d="M50.5,0.5H950.5"
       stroke="currentColor"
       class="domain" />
    <g
       id="g83"
       transform="translate(65.5,0)"
       opacity="1"
       class="tick">
      <line
         id="line79"
         y2="0"
         stroke="currentColor" />
      <text
         id="text81"
         dy="0.71em"
         y="8"
         fill="currentColor">1940</text>
    </g>
    <g
       id="g89"
       transform="translate(109.5,0)"
       opacity="1"
       class="tick">
      <line
         id="line85"
         y2="0"
         stroke="currentColor" />
      <text
         id="text87"
         dy="0.71em"
         y="8"
         fill="currentColor">1944</text>
    </g>
    <g
       id="g95"
       transform="translate(153.5,0)"
       opacity="1"
       class="tick">
      <line
         id="line91"
         y2="0"
         stroke="currentColor" />
      <text
         id="text93"
         dy="0.71em"
         y="8"
         fill="currentColor">1948</text>
    </g>
    <g
       id="g101"
       transform="translate(197.5,0)"
       opacity="1"
       class="tick">
      <line
         id="line97"
         y2="0"
         stroke="currentColor" />
      <text
         id="text99"
         dy="0.71em"
         y="8"
         fill="currentColor">1952</text>
    </g>
    <g
       id="g107"
       transform="translate(241.5,0)"
       opacity="1"
       class="tick">
      <line
         id="line103"
         y2="0"
         stroke="currentColor" />
      <text
         id="text105"
         dy="0.71em"
         y="8"
         fill="currentColor">1956</text>
    </g>
    <g
       id="g113"
       transform="translate(285.5,0)"
       opacity="1"
       class="tick">
      <line
         id="line109"
         y2="0"
         stroke="currentColor" />
      <text
         id="text111"
         dy="0.71em"
         y="8"
         fill="currentColor">1960</text>
    </g>
    <g
       id="g119"
       transform="translate(329.5,0)"
       opacity="1"
       class="tick">
      <line
         id="line115"
         y2="0"
         stroke="currentColor" />
      <text
         id="text117"
         dy="0.71em"
         y="8"
         fill="currentColor">1964</text>
    </g>
    <g
       id="g125"
       transform="translate(373.5,0)"
       opacity="1"
       class="tick">
      <line
         id="line121"
         y2="0"
         stroke="currentColor" />
      <text
         id="text123"
         dy="0.71em"
         y="8"
         fill="currentColor">1968</text>
    </g>
    <g
       id="g131"
       transform="translate(417.5,0)"
       opacity="1"
       class="tick">
      <line
         id="line127"
         y2="0"
         stroke="currentColor" />
      <text
         id="text129"
         dy="0.71em"
         y="8"
         fill="currentColor">1972</text>
    </g>
    <g
       id="g137"
       transform="translate(461.5,0)"
       opacity="1"
       class="tick">
      <line
         id="line133"
         y2="0"
         stroke="currentColor" />
      <text
         id="text135"
         dy="0.71em"
         y="8"
         fill="currentColor">1976</text>
    </g>
    <g
       id="g143"
       transform="translate(505.5,0)"
       opacity="1"
       class="tick">
      <line
         id="line139"
         y2="0"
         stroke="currentColor" />
      <text
         id="text141"
         dy="0.71em"
         y="8"
         fill="currentColor">1980</text>
    </g>
    <g
       id="g149"
       transform="translate(549.5,0)"
       opacity="1"
       class="tick">
      <line
         id="line145"
         y2="0"
         stroke="currentColor" />
      <text
         id="text147"
         dy="0.71em"
         y="8"
         fill="currentColor">1984</text>
    </g>
    <g
       id="g155"
       transform="translate(593.5,0)"
       opacity="1"
       class="tick">
      <line
         id="line151"
         y2="0"
         stroke="currentColor" />
      <text
         id="text153"
         dy="0.71em"
         y="8"
         fill="currentColor">1988</text>
    </g>
    <g
       id="g161"
       transform="translate(637.5,0)"
       opacity="1"
       class="tick">
      <line
         id="line157"
         y2="0"
         stroke="currentColor" />
      <text
         id="text159"
         dy="0.71em"
         y="8"
         fill="currentColor">1992</text>
    </g>
    <g
       id="g167"
       transform="translate(681.5,0)"
       opacity="1"
       class="tick">
      <line
         id="line163"
         y2="0"
         stroke="currentColor" />
      <text
         id="text165"
         dy="0.71em"
         y="8"
         fill="currentColor">1996</text>
    </g>
    <g
       id="g173"
       transform="translate(725.5,0)"
       opacity="1"
       class="tick">
      <line
         id="line169"
         y2="0"
         stroke="currentColor" />
      <text
         id="text171"
         dy="0.71em"
         y="8"
         fill="currentColor">2000</text>
    </g>
    <g
       id="g179"
       transform="translate(769.5,0)"
       opacity="1"
       class="tick">
      <line
         id="line175"
         y2="0"
         stroke="currentColor" />
      <text
         id="text177"
         dy="0.71em"
         y="8"
         fill="currentColor">2004</text>
    </g>
    <g
       id="g185"
       transform="translate(813.5,0)"
       opacity="1"
       class="tick">
      <line
         id="line181"
         y2="0"
         stroke="currentColor" />
      <text
         id="text183"
         dy="0.71em"
         y="8"
         fill="currentColor">2008</text>
    </g>
    <g
       id="g191"
       transform="translate(857.5,0)"
       opacity="1"
       class="tick">
      <line
         id="line187"
         y2="0"
         stroke="currentColor" />
      <text
         id="text189"
         dy="0.71em"
         y="8"
         fill="currentColor">2012</text>
    </g>
    <g
       id="g197"
       transform="translate(901.5,0)"
       opacity="1"
       class="tick">
      <line
         id="line193"
         y2="0"
         stroke="currentColor" />
      <text
         id="text195"
         dy="0.71em"
         y="8"
         fill="currentColor">2016</text>
    </g>
  </g>
  <g
     id="g269"
     text-anchor="end"
     font-family="sans-serif"
     font-size="10"
     fill="none"
     transform="translate(50, 0)"
     class="yAxis">
    <path
       id="path201"
       d="M0.5,550.5V50.5"
       stroke="currentColor"
       class="domain" />
    <g
       id="g207"
       transform="translate(0,550.5)"
       opacity="1"
       class="tick">
      <line
         id="line203"
         x2="-6"
         stroke="currentColor" />
      <text
         id="text205"
         dy="0.32em"
         x="-9"
         fill="currentColor">0 %</text>
    </g>
    <g
       id="g213"
       transform="translate(0,500.5)"
       opacity="1"
       class="tick">
      <line
         id="line209"
         x2="-6"
         stroke="currentColor" />
      <text
         id="text211"
         dy="0.32em"
         x="-9"
         fill="currentColor">10 %</text>
    </g>
    <g
       id="g219"
       transform="translate(0,450.5)"
       opacity="1"
       class="tick">
      <line
         id="line215"
         x2="-6"
         stroke="currentColor" />
      <text
         id="text217"
         dy="0.32em"
         x="-9"
         fill="currentColor">20 %</text>
    </g>
    <g
       id="g225"
       transform="translate(0,400.5)"
       opacity="1"
       class="tick">
      <line
         id="line221"
         x2="-6"
         stroke="currentColor" />
      <text
         id="text223"
         dy="0.32em"
         x="-9"
         fill="currentColor">30 %</text>
    </g>
    <g
       id="g231"
       transform="translate(0,350.5)"
       opacity="1"
       class="tick">
      <line
         id="line227"
         x2="-6"
         stroke="currentColor" />
      <text
         id="text229"
         dy="0.32em"
         x="-9"
         fill="currentColor">40 %</text>
    </g>
    <g
       id="g237"
       transform="translate(0,300.5)"
       opacity="1"
       class="tick">
      <line
         id="line233"
         x2="-6"
         stroke="currentColor" />
      <text
         id="text235"
         dy="0.32em"
         x="-9"
         fill="currentColor">50 %</text>
    </g>
    <g
       id="g243"
       transform="translate(0,250.5)"
       opacity="1"
       class="tick">
      <line
         id="line239"
         x2="-6"
         stroke="currentColor" />
      <text
         id="text241"
         dy="0.32em"
         x="-9"
         fill="currentColor">60 %</text>
    </g>
    <g
       id="g249"
       transform="translate(0,200.5)"
       opacity="1"
       class="tick">
      <line
         id="line245"
         x2="-6"
         stroke="currentColor" />
      <text
         id="text247"
         dy="0.32em"
         x="-9"
         fill="currentColor">70 %</text>
    </g>
    <g
       id="g255"
       transform="translate(0,150.5)"
       opacity="1"
       class="tick">
      <line
         id="line251"
         x2="-6"
         stroke="currentColor" />
      <text
         id="text253"
         dy="0.32em"
         x="-9"
         fill="currentColor">80 %</text>
    </g>
    <g
       id="g261"
       transform="translate(0,100.5)"
       opacity="1"
       class="tick">
      <line
         id="line257"
         x2="-6"
         stroke="currentColor" />
      <text
         id="text259"
         dy="0.32em"
         x="-9"
         fill="currentColor">90 %</text>
    </g>
    <g
       id="g267"
       transform="translate(0,50.5)"
       opacity="1"
       class="tick">
      <line
         id="line263"
         x2="-6"
         stroke="currentColor" />
      <text
         id="text265"
         dy="0.32em"
         x="-9"
         fill="currentColor">100 %</text>
    </g>
  </g>
  <path
     id="path271"
     stroke-dashoffset="0"
     stroke-dasharray="none"
     style="stroke: rgb(219, 165, 32); stroke-width: 3; fill: none;"
     class="line"
     d="M60,209L71,209L71,210L82,210L82,133L93,133L93,164L104,164L104,88L115,88L115,50L126,50L126,232L137,232L137,113L148,113L148,50L159,50L159,50L170,50L170,50L181,50L181,159L192,159L192,81L203,81L203,76L214,76L214,180L225,180L225,144L236,144L236,133L247,133L247,150L258,150L258,50L269,50L269,127L280,127L280,185L291,185L291,161L302,161L302,145L313,145L313,118L324,118L324,285L335,285L335,272L346,272L346,169L357,169L357,230L368,230L368,250L379,250L379,169L390,169L390,125L401,125L401,50L412,50L412,100L423,100L423,83L434,83L434,208L445,208L445,76L456,76L456,75L467,75L467,217L478,217L478,217L489,217L489,154L500,154L500,200L511,200L511,110L522,110L522,161L533,161L533,193L544,193L544,133L555,133L555,180L566,180L566,121L577,121L577,139L588,139L588,106L599,106L599,157L610,157L610,86L621,86L621,108L632,108L632,121L643,121L643,104L654,104L654,121L665,121L665,139L676,139L676,124L687,124L687,86L698,86L698,104L709,104L709,86L720,86L720,121L731,121L731,175L742,175L742,121L753,121L753,157L764,157L764,86L775,86L775,104L786,104L786,104L797,104L797,104L808,104L808,121L819,121L819,86L830,86L830,232L841,232L841,179L852,179L852,124L863,124L863,109L874,109L874,153L885,153L885,95L896,95L896,202L907,202L907,94L918,94L918,144L929,144L929,161L940,161" />
  <path
     id="path273"
     stroke-dashoffset="0"
     stroke-dasharray="none"
     style="stroke: rgb(0, 0, 187); stroke-width: 3; fill: none;"
     class="line"
     d="M60,275L71,275L71,300L82,300L82,300L93,300L93,300L104,300L104,300L115,300L115,50L126,50L126,161L137,161L137,269L148,269L148,175L159,175L159,204L170,204L170,250L181,250L181,281L192,281L192,300L203,300L203,183L214,183L214,300L225,300L225,300L236,300L236,350L247,350L247,250L258,250L258,125L269,125L269,250L280,250L280,275L291,275L291,275L302,275L302,275L313,275L313,300L324,300L324,425L335,425L335,375L346,375L346,375L357,375L357,325L368,325L368,300L379,300L379,325L390,325L390,150L401,150L401,200L412,200L412,325L423,325L423,225L434,225L434,250L445,250L445,250L456,250L456,200L467,200L467,350L478,350L478,350L489,350L489,300L500,300L500,375L511,375L511,400L522,400L522,300L533,300L533,375L544,375L544,300L555,300L555,375L566,375L566,325L577,325L577,400L588,400L588,350L599,350L599,350L610,350L610,350L621,350L621,350L632,350L632,350L643,350L643,275L654,275L654,250L665,250L665,275L676,275L676,325L687,325L687,325L698,325L698,400L709,400L709,350L720,350L720,375L731,375L731,350L742,350L742,425L753,425L753,450L764,450L764,425L775,425L775,425L786,425L786,450L797,450L797,400L808,400L808,450L819,450L819,375L830,375L830,450L841,450L841,450L852,450L852,450L863,450L863,425L874,425L874,475L885,475L885,450L896,450L896,425L907,425L907,475L918,475L918,475L929,475L929,475L940,475" />
  <g
     id="g435">
    <rect
       id="rect275"
       style="opacity: 0.4; cursor: pointer;"
       height="66"
       width="11"
       y="209"
       x="60"
       fill="#FFE333" />
    <rect
       id="rect277"
       style="opacity: 0.4; cursor: pointer;"
       height="90"
       width="11"
       y="210"
       x="71"
       fill="#FFE333" />
    <rect
       id="rect279"
       style="opacity: 0.4; cursor: pointer;"
       height="167"
       width="11"
       y="133"
       x="82"
       fill="#FFE333" />
    <rect
       id="rect281"
       style="opacity: 0.4; cursor: pointer;"
       height="136"
       width="11"
       y="164"
       x="93"
       fill="#FFE333" />
    <rect
       id="rect283"
       style="opacity: 0.4; cursor: pointer;"
       height="212"
       width="11"
       y="88"
       x="104"
       fill="#FFE333" />
    <rect
       id="rect285"
       style="opacity: 0.4; cursor: pointer;"
       height="0"
       width="11"
       y="50"
       x="115"
       fill="#33A5FF" />
    <rect
       id="rect287"
       style="opacity: 0.4; cursor: pointer;"
       height="71"
       width="11"
       y="161"
       x="126"
       fill="#33A5FF" />
    <rect
       id="rect289"
       style="opacity: 0.4; cursor: pointer;"
       height="156"
       width="11"
       y="113"
       x="137"
       fill="#FFE333" />
    <rect
       id="rect291"
       style="opacity: 0.4; cursor: pointer;"
       height="125"
       width="11"
       y="50"
       x="148"
       fill="#FFE333" />
    <rect
       id="rect293"
       style="opacity: 0.4; cursor: pointer;"
       height="154"
       width="11"
       y="50"
       x="159"
       fill="#FFE333" />
    <rect
       id="rect295"
       style="opacity: 0.4; cursor: pointer;"
       height="200"
       width="11"
       y="50"
       x="170"
       fill="#FFE333" />
    <rect
       id="rect297"
       style="opacity: 0.4; cursor: pointer;"
       height="122"
       width="11"
       y="159"
       x="181"
       fill="#FFE333" />
    <rect
       id="rect299"
       style="opacity: 0.4; cursor: pointer;"
       height="219"
       width="11"
       y="81"
       x="192"
       fill="#FFE333" />
    <rect
       id="rect301"
       style="opacity: 0.4; cursor: pointer;"
       height="107"
       width="11"
       y="76"
       x="203"
       fill="#FFE333" />
    <rect
       id="rect303"
       style="opacity: 0.4; cursor: pointer;"
       height="120"
       width="11"
       y="180"
       x="214"
       fill="#FFE333" />
    <rect
       id="rect305"
       style="opacity: 0.4; cursor: pointer;"
       height="156"
       width="11"
       y="144"
       x="225"
       fill="#FFE333" />
    <rect
       id="rect307"
       style="opacity: 0.4; cursor: pointer;"
       height="217"
       width="11"
       y="133"
       x="236"
       fill="#FFE333" />
    <rect
       id="rect309"
       style="opacity: 0.4; cursor: pointer;"
       height="100"
       width="11"
       y="150"
       x="247"
       fill="#FFE333" />
    <rect
       id="rect311"
       style="opacity: 0.4; cursor: pointer;"
       height="75"
       width="11"
       y="50"
       x="258"
       fill="#FFE333" />
    <rect
       id="rect313"
       style="opacity: 0.4; cursor: pointer;"
       height="123"
       width="11"
       y="127"
       x="269"
       fill="#FFE333" />
    <rect
       id="rect315"
       style="opacity: 0.4; cursor: pointer;"
       height="90"
       width="11"
       y="185"
       x="280"
       fill="#FFE333" />
    <rect
       id="rect317"
       style="opacity: 0.4; cursor: pointer;"
       height="114"
       width="11"
       y="161"
       x="291"
       fill="#FFE333" />
    <rect
       id="rect319"
       style="opacity: 0.4; cursor: pointer;"
       height="130"
       width="11"
       y="145"
       x="302"
       fill="#FFE333" />
    <rect
       id="rect321"
       style="opacity: 0.4; cursor: pointer;"
       height="182"
       width="11"
       y="118"
       x="313"
       fill="#FFE333" />
    <rect
       id="rect323"
       style="opacity: 0.4; cursor: pointer;"
       height="140"
       width="11"
       y="285"
       x="324"
       fill="#FFE333" />
    <rect
       id="rect325"
       style="opacity: 0.4; cursor: pointer;"
       height="103"
       width="11"
       y="272"
       x="335"
       fill="#FFE333" />
    <rect
       id="rect327"
       style="opacity: 0.4; cursor: pointer;"
       height="206"
       width="11"
       y="169"
       x="346"
       fill="#FFE333" />
    <rect
       id="rect329"
       style="opacity: 0.4; cursor: pointer;"
       height="95"
       width="11"
       y="230"
       x="357"
       fill="#FFE333" />
    <rect
       id="rect331"
       style="opacity: 0.4; cursor: pointer;"
       height="50"
       width="11"
       y="250"
       x="368"
       fill="#FFE333" />
    <rect
       id="rect333"
       style="opacity: 0.4; cursor: pointer;"
       height="156"
       width="11"
       y="169"
       x="379"
       fill="#FFE333" />
    <rect
       id="rect335"
       style="opacity: 0.4; cursor: pointer;"
       height="25"
       width="11"
       y="125"
       x="390"
       fill="#FFE333" />
    <rect
       id="rect337"
       style="opacity: 0.4; cursor: pointer;"
       height="150"
       width="11"
       y="50"
       x="401"
       fill="#FFE333" />
    <rect
       id="rect339"
       style="opacity: 0.4; cursor: pointer;"
       height="225"
       width="11"
       y="100"
       x="412"
       fill="#FFE333" />
    <rect
       id="rect341"
       style="opacity: 0.4; cursor: pointer;"
       height="142"
       width="11"
       y="83"
       x="423"
       fill="#FFE333" />
    <rect
       id="rect343"
       style="opacity: 0.4; cursor: pointer;"
       height="42"
       width="11"
       y="208"
       x="434"
       fill="#FFE333" />
    <rect
       id="rect345"
       style="opacity: 0.4; cursor: pointer;"
       height="174"
       width="11"
       y="76"
       x="445"
       fill="#FFE333" />
    <rect
       id="rect347"
       style="opacity: 0.4; cursor: pointer;"
       height="125"
       width="11"
       y="75"
       x="456"
       fill="#FFE333" />
    <rect
       id="rect349"
       style="opacity: 0.4; cursor: pointer;"
       height="133"
       width="11"
       y="217"
       x="467"
       fill="#FFE333" />
    <rect
       id="rect351"
       style="opacity: 0.4; cursor: pointer;"
       height="133"
       width="11"
       y="217"
       x="478"
       fill="#FFE333" />
    <rect
       id="rect353"
       style="opacity: 0.4; cursor: pointer;"
       height="146"
       width="11"
       y="154"
       x="489"
       fill="#FFE333" />
    <rect
       id="rect355"
       style="opacity: 0.4; cursor: pointer;"
       height="175"
       width="11"
       y="200"
       x="500"
       fill="#FFE333" />
    <rect
       id="rect357"
       style="opacity: 0.4; cursor: pointer;"
       height="290"
       width="11"
       y="110"
       x="511"
       fill="#FFE333" />
    <rect
       id="rect359"
       style="opacity: 0.4; cursor: pointer;"
       height="139"
       width="11"
       y="161"
       x="522"
       fill="#FFE333" />
    <rect
       id="rect361"
       style="opacity: 0.4; cursor: pointer;"
       height="182"
       width="11"
       y="193"
       x="533"
       fill="#FFE333" />
    <rect
       id="rect363"
       style="opacity: 0.4; cursor: pointer;"
       height="167"
       width="11"
       y="133"
       x="544"
       fill="#FFE333" />
    <rect
       id="rect365"
       style="opacity: 0.4; cursor: pointer;"
       height="195"
       width="11"
       y="180"
       x="555"
       fill="#FFE333" />
    <rect
       id="rect367"
       style="opacity: 0.4; cursor: pointer;"
       height="204"
       width="11"
       y="121"
       x="566"
       fill="#FFE333" />
    <rect
       id="rect369"
       style="opacity: 0.4; cursor: pointer;"
       height="261"
       width="11"
       y="139"
       x="577"
       fill="#FFE333" />
    <rect
       id="rect371"
       style="opacity: 0.4; cursor: pointer;"
       height="244"
       width="11"
       y="106"
       x="588"
       fill="#FFE333" />
    <rect
       id="rect373"
       style="opacity: 0.4; cursor: pointer;"
       height="193"
       width="11"
       y="157"
       x="599"
       fill="#FFE333" />
    <rect
       id="rect375"
       style="opacity: 0.4; cursor: pointer;"
       height="264"
       width="11"
       y="86"
       x="610"
       fill="#FFE333" />
    <rect
       id="rect377"
       style="opacity: 0.4; cursor: pointer;"
       height="242"
       width="11"
       y="108"
       x="621"
       fill="#FFE333" />
    <rect
       id="rect379"
       style="opacity: 0.4; cursor: pointer;"
       height="229"
       width="11"
       y="121"
       x="632"
       fill="#FFE333" />
    <rect
       id="rect381"
       style="opacity: 0.4; cursor: pointer;"
       height="171"
       width="11"
       y="104"
       x="643"
       fill="#FFE333" />
    <rect
       id="rect383"
       style="opacity: 0.4; cursor: pointer;"
       height="129"
       width="11"
       y="121"
       x="654"
       fill="#FFE333" />
    <rect
       id="rect385"
       style="opacity: 0.4; cursor: pointer;"
       height="136"
       width="11"
       y="139"
       x="665"
       fill="#FFE333" />
    <rect
       id="rect387"
       style="opacity: 0.4; cursor: pointer;"
       height="201"
       width="11"
       y="124"
       x="676"
       fill="#FFE333" />
    <rect
       id="rect389"
       style="opacity: 0.4; cursor: pointer;"
       height="239"
       width="11"
       y="86"
       x="687"
       fill="#FFE333" />
    <rect
       id="rect391"
       style="opacity: 0.4; cursor: pointer;"
       height="296"
       width="11"
       y="104"
       x="698"
       fill="#FFE333" />
    <rect
       id="rect393"
       style="opacity: 0.4; cursor: pointer;"
       height="264"
       width="11"
       y="86"
       x="709"
       fill="#FFE333" />
    <rect
       id="rect395"
       style="opacity: 0.4; cursor: pointer;"
       height="254"
       width="11"
       y="121"
       x="720"
       fill="#FFE333" />
    <rect
       id="rect397"
       style="opacity: 0.4; cursor: pointer;"
       height="175"
       width="11"
       y="175"
       x="731"
       fill="#FFE333" />
    <rect
       id="rect399"
       style="opacity: 0.4; cursor: pointer;"
       height="304"
       width="11"
       y="121"
       x="742"
       fill="#FFE333" />
    <rect
       id="rect401"
       style="opacity: 0.4; cursor: pointer;"
       height="293"
       width="11"
       y="157"
       x="753"
       fill="#FFE333" />
    <rect
       id="rect403"
       style="opacity: 0.4; cursor: pointer;"
       height="339"
       width="11"
       y="86"
       x="764"
       fill="#FFE333" />
    <rect
       id="rect405"
       style="opacity: 0.4; cursor: pointer;"
       height="321"
       width="11"
       y="104"
       x="775"
       fill="#FFE333" />
    <rect
       id="rect407"
       style="opacity: 0.4; cursor: pointer;"
       height="346"
       width="11"
       y="104"
       x="786"
       fill="#FFE333" />
    <rect
       id="rect409"
       style="opacity: 0.4; cursor: pointer;"
       height="296"
       width="11"
       y="104"
       x="797"
       fill="#FFE333" />
    <rect
       id="rect411"
       style="opacity: 0.4; cursor: pointer;"
       height="329"
       width="11"
       y="121"
       x="808"
       fill="#FFE333" />
    <rect
       id="rect413"
       style="opacity: 0.4; cursor: pointer;"
       height="289"
       width="11"
       y="86"
       x="819"
       fill="#FFE333" />
    <rect
       id="rect415"
       style="opacity: 0.4; cursor: pointer;"
       height="218"
       width="11"
       y="232"
       x="830"
       fill="#FFE333" />
    <rect
       id="rect417"
       style="opacity: 0.4; cursor: pointer;"
       height="271"
       width="11"
       y="179"
       x="841"
       fill="#FFE333" />
    <rect
       id="rect419"
       style="opacity: 0.4; cursor: pointer;"
       height="326"
       width="11"
       y="124"
       x="852"
       fill="#FFE333" />
    <rect
       id="rect421"
       style="opacity: 0.4; cursor: pointer;"
       height="316"
       width="11"
       y="109"
       x="863"
       fill="#FFE333" />
    <rect
       id="rect423"
       style="opacity: 0.4; cursor: pointer;"
       height="322"
       width="11"
       y="153"
       x="874"
       fill="#FFE333" />
    <rect
       id="rect425"
       style="opacity: 0.4; cursor: pointer;"
       height="355"
       width="11"
       y="95"
       x="885"
       fill="#FFE333" />
    <rect
       id="rect427"
       style="opacity: 0.4; cursor: pointer;"
       height="223"
       width="11"
       y="202"
       x="896"
       fill="#FFE333" />
    <rect
       id="rect429"
       style="opacity: 0.4; cursor: pointer;"
       height="381"
       width="11"
       y="94"
       x="907"
       fill="#FFE333" />
    <rect
       id="rect431"
       style="opacity: 0.4; cursor: pointer;"
       height="331"
       width="11"
       y="144"
       x="918"
       fill="#FFE333" />
    <rect
       id="rect433"
       style="opacity: 0.4; cursor: pointer;"
       height="314"
       width="11"
       y="161"
       x="929"
       fill="#FFE333" />
  </g>
  <text
     id="text437"
     style="font-style: italic;"
     text-anchor="middle"
     y="25"
     x="50">Fréquence</text>
  <text
     id="text439"
     style="font-style: italic;"
     text-anchor="end"
     y="580"
     x="960">Année</text>
  <g
     id="g449"
     style="opacity: 1;"
     class="legend">
    <rect
       id="rect441"
       fill="#DBA520"
       height="3"
       width="40"
       y="13"
       x="320" />
    <text
       id="text443"
       alignment-baseline="central"
       text-anchor="start"
       y="20"
       x="370">Films nommés aux Oscars</text>
    <rect
       id="rect445"
       fill="#0000BB"
       height="3"
       width="40"
       y="13"
       x="620" />
    <text
       id="text447"
       alignment-baseline="central"
       text-anchor="start"
       y="20"
       x="670">Films du top 20 au box office</text>
  </g>
</svg>
