<?xml version="1.0" encoding="UTF-8" standalone="no"?>
<svg
   xmlns:dc="http://purl.org/dc/elements/1.1/"
   xmlns:cc="http://creativecommons.org/ns#"
   xmlns:rdf="http://www.w3.org/1999/02/22-rdf-syntax-ns#"
   xmlns:svg="http://www.w3.org/2000/svg"
   xmlns="http://www.w3.org/2000/svg"
   id="svg475"
   version="1.1"
   viewBox="0 0 1000 600">
  <metadata
     id="metadata479">
    <rdf:RDF>
      <cc:Work
         rdf:about="">
        <dc:format>image/svg+xml</dc:format>
        <dc:type
           rdf:resource="http://purl.org/dc/dcmitype/StillImage" />
        <dc:title></dc:title>
      </cc:Work>
    </rdf:RDF>
  </metadata>
  <defs
     id="defs5">
    <marker
       orient="auto"
       markerUnits="userSpaceOnUse"
       markerHeight="30"
       markerWidth="30"
       refY="6"
       refX="6"
       id="triangle">
      <path
         id="path2"
         fill="black"
         d="M 0 0 12 6 0 12 3 6" />
    </marker>
  </defs>
  <g
     id="g87"
     text-anchor="start"
     font-family="sans-serif"
     font-size="10"
     fill="none"
     style="stroke-dasharray: 5, 5;"
     transform="translate(50, 0)"
     class="grid">
    <path
       id="path7"
       style="opacity: 0;"
       d="M0.5,550.5V50.5"
       stroke="currentColor"
       class="domain" />
    <g
       id="g13"
       transform="translate(0,550.5)"
       opacity="1"
       class="tick">
      <line
         id="line9"
         x2="900"
         stroke="currentColor" />
      <text
         id="text11"
         dy="0.32em"
         x="903"
         fill="currentColor" />
    </g>
    <g
       id="g19"
       transform="translate(0, 511.5)"
       opacity="1"
       class="tick">
      <line
         id="line15"
         x2="900"
         stroke="currentColor" />
      <text
         id="text17"
         dy="0.32em"
         x="903"
         fill="currentColor" />
    </g>
    <g
       id="g25"
       transform="translate(0, 471.5)"
       opacity="1"
       class="tick">
      <line
         id="line21"
         x2="900"
         stroke="currentColor" />
      <text
         id="text23"
         dy="0.32em"
         x="903"
         fill="currentColor" />
    </g>
    <g
       id="g31"
       transform="translate(0, 432.5)"
       opacity="1"
       class="tick">
      <line
         id="line27"
         x2="900"
         stroke="currentColor" />
      <text
         id="text29"
         dy="0.32em"
         x="903"
         fill="currentColor" />
    </g>
    <g
       id="g37"
       transform="translate(0, 393.5)"
       opacity="1"
       class="tick">
      <line
         id="line33"
         x2="900"
         stroke="currentColor" />
      <text
         id="text35"
         dy="0.32em"
         x="903"
         fill="currentColor" />
    </g>
    <g
       id="g43"
       transform="translate(0, 354.5)"
       opacity="1"
       class="tick">
      <line
         id="line39"
         x2="900"
         stroke="currentColor" />
      <text
         id="text41"
         dy="0.32em"
         x="903"
         fill="currentColor" />
    </g>
    <g
       id="g49"
       transform="translate(0, 314.5)"
       opacity="1"
       class="tick">
      <line
         id="line45"
         x2="900"
         stroke="currentColor" />
      <text
         id="text47"
         dy="0.32em"
         x="903"
         fill="currentColor" />
    </g>
    <g
       id="g55"
       transform="translate(0, 275.5)"
       opacity="1"
       class="tick">
      <line
         id="line51"
         x2="900"
         stroke="currentColor" />
      <text
         id="text53"
         dy="0.32em"
         x="903"
         fill="currentColor" />
    </g>
    <g
       id="g61"
       transform="translate(0, 236.5)"
       opacity="1"
       class="tick">
      <line
         id="line57"
         x2="900"
         stroke="currentColor" />
      <text
         id="text59"
         dy="0.32em"
         x="903"
         fill="currentColor" />
    </g>
    <g
       id="g67"
       transform="translate(0, 196.5)"
       opacity="1"
       class="tick">
      <line
         id="line63"
         x2="900"
         stroke="currentColor" />
      <text
         id="text65"
         dy="0.32em"
         x="903"
         fill="currentColor" />
    </g>
    <g
       id="g73"
       transform="translate(0, 157.5)"
       opacity="1"
       class="tick">
      <line
         id="line69"
         x2="900"
         stroke="currentColor" />
      <text
         id="text71"
         dy="0.32em"
         x="903"
         fill="currentColor" />
    </g>
    <g
       id="g79"
       transform="translate(0, 118.5)"
       opacity="1"
       class="tick">
      <line
         id="line75"
         x2="900"
         stroke="currentColor" />
      <text
         id="text77"
         dy="0.32em"
         x="903"
         fill="currentColor" />
    </g>
    <g
       id="g85"
       transform="translate(0, 79.5)"
       opacity="1"
       class="tick">
      <line
         id="line81"
         x2="900"
         stroke="currentColor" />
      <text
         id="text83"
         dy="0.32em"
         x="903"
         fill="currentColor" />
    </g>
  </g>
  <g
     id="g211"
     text-anchor="middle"
     font-family="sans-serif"
     font-size="10"
     fill="none"
     transform="translate(0, 550)"
     class="xAxis">
    <path
       id="path89"
       marker-end="url(#triangle)"
       d="M50.5,0.5H950.5"
       stroke="currentColor"
       class="domain" />
    <g
       id="g95"
       transform="translate(65.5,0)"
       opacity="1"
       class="tick">
      <line
         id="line91"
         y2="0"
         stroke="currentColor" />
      <text
         id="text93"
         dy="0.71em"
         y="8"
         fill="currentColor">1940</text>
    </g>
    <g
       id="g101"
       transform="translate(109.5,0)"
       opacity="1"
       class="tick">
      <line
         id="line97"
         y2="0"
         stroke="currentColor" />
      <text
         id="text99"
         dy="0.71em"
         y="8"
         fill="currentColor">1944</text>
    </g>
    <g
       id="g107"
       transform="translate(153.5,0)"
       opacity="1"
       class="tick">
      <line
         id="line103"
         y2="0"
         stroke="currentColor" />
      <text
         id="text105"
         dy="0.71em"
         y="8"
         fill="currentColor">1948</text>
    </g>
    <g
       id="g113"
       transform="translate(197.5,0)"
       opacity="1"
       class="tick">
      <line
         id="line109"
         y2="0"
         stroke="currentColor" />
      <text
         id="text111"
         dy="0.71em"
         y="8"
         fill="currentColor">1952</text>
    </g>
    <g
       id="g119"
       transform="translate(241.5,0)"
       opacity="1"
       class="tick">
      <line
         id="line115"
         y2="0"
         stroke="currentColor" />
      <text
         id="text117"
         dy="0.71em"
         y="8"
         fill="currentColor">1956</text>
    </g>
    <g
       id="g125"
       transform="translate(285.5,0)"
       opacity="1"
       class="tick">
      <line
         id="line121"
         y2="0"
         stroke="currentColor" />
      <text
         id="text123"
         dy="0.71em"
         y="8"
         fill="currentColor">1960</text>
    </g>
    <g
       id="g131"
       transform="translate(329.5,0)"
       opacity="1"
       class="tick">
      <line
         id="line127"
         y2="0"
         stroke="currentColor" />
      <text
         id="text129"
         dy="0.71em"
         y="8"
         fill="currentColor">1964</text>
    </g>
    <g
       id="g137"
       transform="translate(373.5,0)"
       opacity="1"
       class="tick">
      <line
         id="line133"
         y2="0"
         stroke="currentColor" />
      <text
         id="text135"
         dy="0.71em"
         y="8"
         fill="currentColor">1968</text>
    </g>
    <g
       id="g143"
       transform="translate(417.5,0)"
       opacity="1"
       class="tick">
      <line
         id="line139"
         y2="0"
         stroke="currentColor" />
      <text
         id="text141"
         dy="0.71em"
         y="8"
         fill="currentColor">1972</text>
    </g>
    <g
       id="g149"
       transform="translate(461.5,0)"
       opacity="1"
       class="tick">
      <line
         id="line145"
         y2="0"
         stroke="currentColor" />
      <text
         id="text147"
         dy="0.71em"
         y="8"
         fill="currentColor">1976</text>
    </g>
    <g
       id="g155"
       transform="translate(505.5,0)"
       opacity="1"
       class="tick">
      <line
         id="line151"
         y2="0"
         stroke="currentColor" />
      <text
         id="text153"
         dy="0.71em"
         y="8"
         fill="currentColor">1980</text>
    </g>
    <g
       id="g161"
       transform="translate(549.5,0)"
       opacity="1"
       class="tick">
      <line
         id="line157"
         y2="0"
         stroke="currentColor" />
      <text
         id="text159"
         dy="0.71em"
         y="8"
         fill="currentColor">1984</text>
    </g>
    <g
       id="g167"
       transform="translate(593.5,0)"
       opacity="1"
       class="tick">
      <line
         id="line163"
         y2="0"
         stroke="currentColor" />
      <text
         id="text165"
         dy="0.71em"
         y="8"
         fill="currentColor">1988</text>
    </g>
    <g
       id="g173"
       transform="translate(637.5,0)"
       opacity="1"
       class="tick">
      <line
         id="line169"
         y2="0"
         stroke="currentColor" />
      <text
         id="text171"
         dy="0.71em"
         y="8"
         fill="currentColor">1992</text>
    </g>
    <g
       id="g179"
       transform="translate(681.5,0)"
       opacity="1"
       class="tick">
      <line
         id="line175"
         y2="0"
         stroke="currentColor" />
      <text
         id="text177"
         dy="0.71em"
         y="8"
         fill="currentColor">1996</text>
    </g>
    <g
       id="g185"
       transform="translate(725.5,0)"
       opacity="1"
       class="tick">
      <line
         id="line181"
         y2="0"
         stroke="currentColor" />
      <text
         id="text183"
         dy="0.71em"
         y="8"
         fill="currentColor">2000</text>
    </g>
    <g
       id="g191"
       transform="translate(769.5,0)"
       opacity="1"
       class="tick">
      <line
         id="line187"
         y2="0"
         stroke="currentColor" />
      <text
         id="text189"
         dy="0.71em"
         y="8"
         fill="currentColor">2004</text>
    </g>
    <g
       id="g197"
       transform="translate(813.5,0)"
       opacity="1"
       class="tick">
      <line
         id="line193"
         y2="0"
         stroke="currentColor" />
      <text
         id="text195"
         dy="0.71em"
         y="8"
         fill="currentColor">2008</text>
    </g>
    <g
       id="g203"
       transform="translate(857.5,0)"
       opacity="1"
       class="tick">
      <line
         id="line199"
         y2="0"
         stroke="currentColor" />
      <text
         id="text201"
         dy="0.71em"
         y="8"
         fill="currentColor">2012</text>
    </g>
    <g
       id="g209"
       transform="translate(901.5,0)"
       opacity="1"
       class="tick">
      <line
         id="line205"
         y2="0"
         stroke="currentColor" />
      <text
         id="text207"
         dy="0.71em"
         y="8"
         fill="currentColor">2016</text>
    </g>
  </g>
  <g
     id="g293"
     text-anchor="end"
     font-family="sans-serif"
     font-size="10"
     fill="none"
     transform="translate(50, 0)"
     class="yAxis">
    <path
       id="path213"
       d="M0.5,550.5V50.5"
       stroke="currentColor"
       class="domain" />
    <g
       id="g219"
       transform="translate(0,550.5)"
       opacity="1"
       class="tick">
      <line
         id="line215"
         x2="-6"
         stroke="currentColor" />
      <text
         id="text217"
         dy="0.32em"
         x="-9"
         fill="currentColor">0 %</text>
    </g>
    <g
       id="g225"
       transform="translate(0, 511.5)"
       opacity="1"
       class="tick">
      <line
         id="line221"
         x2="-6"
         stroke="currentColor" />
      <text
         id="text223"
         dy="0.32em"
         x="-9"
         fill="currentColor">5 %</text>
    </g>
    <g
       id="g231"
       transform="translate(0, 471.5)"
       opacity="1"
       class="tick">
      <line
         id="line227"
         x2="-6"
         stroke="currentColor" />
      <text
         id="text229"
         dy="0.32em"
         x="-9"
         fill="currentColor">10 %</text>
    </g>
    <g
       id="g237"
       transform="translate(0, 432.5)"
       opacity="1"
       class="tick">
      <line
         id="line233"
         x2="-6"
         stroke="currentColor" />
      <text
         id="text235"
         dy="0.32em"
         x="-9"
         fill="currentColor">15 %</text>
    </g>
    <g
       id="g243"
       transform="translate(0, 393.5)"
       opacity="1"
       class="tick">
      <line
         id="line239"
         x2="-6"
         stroke="currentColor" />
      <text
         id="text241"
         dy="0.32em"
         x="-9"
         fill="currentColor">20 %</text>
    </g>
    <g
       id="g249"
       transform="translate(0, 354.5)"
       opacity="1"
       class="tick">
      <line
         id="line245"
         x2="-6"
         stroke="currentColor" />
      <text
         id="text247"
         dy="0.32em"
         x="-9"
         fill="currentColor">25 %</text>
    </g>
    <g
       id="g255"
       transform="translate(0, 314.5)"
       opacity="1"
       class="tick">
      <line
         id="line251"
         x2="-6"
         stroke="currentColor" />
      <text
         id="text253"
         dy="0.32em"
         x="-9"
         fill="currentColor">30 %</text>
    </g>
    <g
       id="g261"
       transform="translate(0, 275.5)"
       opacity="1"
       class="tick">
      <line
         id="line257"
         x2="-6"
         stroke="currentColor" />
      <text
         id="text259"
         dy="0.32em"
         x="-9"
         fill="currentColor">35 %</text>
    </g>
    <g
       id="g267"
       transform="translate(0, 236.5)"
       opacity="1"
       class="tick">
      <line
         id="line263"
         x2="-6"
         stroke="currentColor" />
      <text
         id="text265"
         dy="0.32em"
         x="-9"
         fill="currentColor">40 %</text>
    </g>
    <g
       id="g273"
       transform="translate(0, 196.5)"
       opacity="1"
       class="tick">
      <line
         id="line269"
         x2="-6"
         stroke="currentColor" />
      <text
         id="text271"
         dy="0.32em"
         x="-9"
         fill="currentColor">45 %</text>
    </g>
    <g
       id="g279"
       transform="translate(0, 157.5)"
       opacity="1"
       class="tick">
      <line
         id="line275"
         x2="-6"
         stroke="currentColor" />
      <text
         id="text277"
         dy="0.32em"
         x="-9"
         fill="currentColor">50 %</text>
    </g>
    <g
       id="g285"
       transform="translate(0, 118.5)"
       opacity="1"
       class="tick">
      <line
         id="line281"
         x2="-6"
         stroke="currentColor" />
      <text
         id="text283"
         dy="0.32em"
         x="-9"
         fill="currentColor">55 %</text>
    </g>
    <g
       id="g291"
       transform="translate(0, 79.5)"
       opacity="1"
       class="tick">
      <line
         id="line287"
         x2="-6"
         stroke="currentColor" />
      <text
         id="text289"
         dy="0.32em"
         x="-9"
         fill="currentColor">60 %</text>
    </g>
  </g>
  <path
     id="path295"
     stroke-dashoffset="0"
     stroke-dasharray="none"
     style="stroke: rgb(219, 165, 32); stroke-width: 3; fill: none;"
     class="line"
     d="M60,50L71,50L71,204L82,204L82,550L93,550L93,86L104,86L104,248L115,248L115,550L126,550L126,264L137,264L137,157L148,157L148,550L159,550L159,471L170,471L170,485L181,485L181,379L192,379L192,255L203,255L203,178L214,178L214,208L225,208L225,403L236,403L236,223L247,223L247,393L258,393L258,201L269,201L269,187L280,187L280,278L291,278L291,201L302,201L302,400L313,400L313,443L324,443L324,504L335,504L335,521L346,521L346,213L357,213L357,424L368,424L368,354L379,354L379,438L390,438L390,432L401,432L401,393L412,393L412,471L423,471L423,550L434,550L434,385L445,385L445,426L456,426L456,550L467,550L467,445L478,445L478,223L489,223L489,124L500,124L500,445L511,445L511,424L522,424L522,346L533,346L533,354L544,354L544,517L555,517L555,521L566,521L566,269L577,269L577,354L588,354L588,259L599,259L599,241L610,241L610,466L621,466L621,399L632,399L632,466L643,466L643,297L654,297L654,213L665,213L665,241L676,241L676,346L687,346L687,382L698,382L698,241L709,241L709,382L720,382L720,382L731,382L731,410L742,410L742,410L753,410L753,354L764,354L764,522L775,522L775,354L786,354L786,354L797,354L797,466L808,466L808,438L819,438L819,157L830,157L830,455L841,455L841,505L852,505L852,365L863,365L863,388L874,388L874,481L885,481L885,502L896,502L896,455L907,455L907,527L918,527L918,427L929,427L929,375L940,375" />
  <path
     id="path297"
     stroke-dashoffset="149.10002553600043"
     stroke-dasharray="none"
     style="stroke: rgb(0, 0, 187); stroke-width: 3; fill: none;"
     class="line"
     d="M60,314L71,314L71,206L82,206L82,393L93,393L93,236L104,236L104,326L115,326L115,550L126,550L126,375L137,375L137,206L148,206L148,452L159,452L159,369L170,369L170,314L181,314L181,490L192,490L192,382L203,382L203,288L214,288L214,354L225,354L225,354L236,354L236,183L247,183L247,275L258,275L258,354L269,354L269,393L280,393L280,314L291,314L291,314L302,314L302,275L313,275L313,393L324,393L324,354L335,354L335,393L346,393L346,393L357,393L357,471L368,471L368,314L379,314L379,471L390,471L390,354L401,354L401,432L412,432L412,550L423,550L423,393L434,393L434,511L445,511L445,393L456,393L456,511L467,511L467,471L478,471L478,393L489,393L489,314L500,314L500,354L511,354L511,432L522,432L522,471L533,471L533,432L544,432L544,432L555,432L555,471L566,471L566,471L577,471L577,432L588,432L588,393L599,393L599,393L610,393L610,432L621,432L621,432L632,432L632,471L643,471L643,432L654,432L654,354L665,354L665,432L676,432L676,432L687,432L687,393L698,393L698,393L709,393L709,432L720,432L720,471L731,471L731,393L742,393L742,471L753,471L753,432L764,432L764,511L775,511L775,432L786,432L786,432L797,432L797,511L808,511L808,511L819,511L819,393L830,393L830,511L841,511L841,511L852,511L852,511L863,511L863,511L874,511L874,511L885,511L885,550L896,550L896,511L907,511L907,550L918,550L918,550L929,550L929,471L940,471" />
  <g
     id="g459">
    <rect
       id="rect299"
       style="opacity: 0.4; cursor: pointer;"
       height="264"
       width="11"
       y="50"
       x="60"
       fill="#FFE333" />
    <rect
       id="rect301"
       style="opacity: 0.4; cursor: pointer;"
       height="2"
       width="11"
       y="204"
       x="71"
       fill="#FFE333" />
    <rect
       id="rect303"
       style="opacity: 0.4; cursor: pointer;"
       height="157"
       width="11"
       y="393"
       x="82"
       fill="rgb(51, 165, 255)" />
    <rect
       id="rect305"
       style="opacity: 0.4; cursor: pointer;"
       height="150"
       width="11"
       y="86"
       x="93"
       fill="#FFE333" />
    <rect
       id="rect307"
       style="opacity: 0.4; cursor: pointer;"
       height="78"
       width="11"
       y="248"
       x="104"
       fill="#FFE333" />
    <rect
       id="rect309"
       style="opacity: 0.4; cursor: pointer;"
       height="0"
       width="11"
       y="550"
       x="115"
       fill="#33A5FF" />
    <rect
       id="rect311"
       style="opacity: 0.4; cursor: pointer;"
       height="111"
       width="11"
       y="264"
       x="126"
       fill="rgb(255, 227, 51)" />
    <rect
       id="rect313"
       style="opacity: 0.4; cursor: pointer;"
       height="49"
       width="11"
       y="157"
       x="137"
       fill="#FFE333" />
    <rect
       id="rect315"
       style="opacity: 0.4; cursor: pointer;"
       height="98"
       width="11"
       y="452"
       x="148"
       fill="rgb(51, 165, 255)" />
    <rect
       id="rect317"
       style="opacity: 0.4; cursor: pointer;"
       height="102"
       width="11"
       y="369"
       x="159"
       fill="rgb(51, 165, 255)" />
    <rect
       id="rect319"
       style="opacity: 0.4; cursor: pointer;"
       height="171"
       width="11"
       y="314"
       x="170"
       fill="rgb(51, 165, 255)" />
    <rect
       id="rect321"
       style="opacity: 0.4; cursor: pointer;"
       height="111"
       width="11"
       y="379"
       x="181"
       fill="#FFE333" />
    <rect
       id="rect323"
       style="opacity: 0.4; cursor: pointer;"
       height="127"
       width="11"
       y="255"
       x="192"
       fill="#FFE333" />
    <rect
       id="rect325"
       style="opacity: 0.4; cursor: pointer;"
       height="110"
       width="11"
       y="178"
       x="203"
       fill="#FFE333" />
    <rect
       id="rect327"
       style="opacity: 0.4; cursor: pointer;"
       height="146"
       width="11"
       y="208"
       x="214"
       fill="#FFE333" />
    <rect
       id="rect329"
       style="opacity: 0.4; cursor: pointer;"
       height="49"
       width="11"
       y="354"
       x="225"
       fill="rgb(51, 165, 255)" />
    <rect
       id="rect331"
       style="opacity: 0.4; cursor: pointer;"
       height="40"
       width="11"
       y="183"
       x="236"
       fill="rgb(51, 165, 255)" />
    <rect
       id="rect333"
       style="opacity: 0.4; cursor: pointer;"
       height="118"
       width="11"
       y="275"
       x="247"
       fill="rgb(51, 165, 255)" />
    <rect
       id="rect335"
       style="opacity: 0.4; cursor: pointer;"
       height="153"
       width="11"
       y="201"
       x="258"
       fill="#FFE333" />
    <rect
       id="rect337"
       style="opacity: 0.4; cursor: pointer;"
       height="206"
       width="11"
       y="187"
       x="269"
       fill="#FFE333" />
    <rect
       id="rect339"
       style="opacity: 0.4; cursor: pointer;"
       height="36"
       width="11"
       y="278"
       x="280"
       fill="#FFE333" />
    <rect
       id="rect341"
       style="opacity: 0.4; cursor: pointer;"
       height="113"
       width="11"
       y="201"
       x="291"
       fill="#FFE333" />
    <rect
       id="rect343"
       style="opacity: 0.4; cursor: pointer;"
       height="125"
       width="11"
       y="275"
       x="302"
       fill="rgb(51, 165, 255)" />
    <rect
       id="rect345"
       style="opacity: 0.4; cursor: pointer;"
       height="50"
       width="11"
       y="393"
       x="313"
       fill="rgb(51, 165, 255)" />
    <rect
       id="rect347"
       style="opacity: 0.4; cursor: pointer;"
       height="150"
       width="11"
       y="354"
       x="324"
       fill="rgb(51, 165, 255)" />
    <rect
       id="rect349"
       style="opacity: 0.4; cursor: pointer;"
       height="128"
       width="11"
       y="393"
       x="335"
       fill="rgb(51, 165, 255)" />
    <rect
       id="rect351"
       style="opacity: 0.4; cursor: pointer;"
       height="180"
       width="11"
       y="213"
       x="346"
       fill="#FFE333" />
    <rect
       id="rect353"
       style="opacity: 0.4; cursor: pointer;"
       height="47"
       width="11"
       y="424"
       x="357"
       fill="#FFE333" />
    <rect
       id="rect355"
       style="opacity: 0.4; cursor: pointer;"
       height="40"
       width="11"
       y="314"
       x="368"
       fill="rgb(51, 165, 255)" />
    <rect
       id="rect357"
       style="opacity: 0.4; cursor: pointer;"
       height="33"
       width="11"
       y="438"
       x="379"
       fill="#FFE333" />
    <rect
       id="rect359"
       style="opacity: 0.4; cursor: pointer;"
       height="78"
       width="11"
       y="354"
       x="390"
       fill="rgb(51, 165, 255)" />
    <rect
       id="rect361"
       style="opacity: 0.4; cursor: pointer;"
       height="39"
       width="11"
       y="393"
       x="401"
       fill="#FFE333" />
    <rect
       id="rect363"
       style="opacity: 0.4; cursor: pointer;"
       height="79"
       width="11"
       y="471"
       x="412"
       fill="#FFE333" />
    <rect
       id="rect365"
       style="opacity: 0.4; cursor: pointer;"
       height="157"
       width="11"
       y="393"
       x="423"
       fill="rgb(51, 165, 255)" />
    <rect
       id="rect367"
       style="opacity: 0.4; cursor: pointer;"
       height="126"
       width="11"
       y="385"
       x="434"
       fill="#FFE333" />
    <rect
       id="rect369"
       style="opacity: 0.4; cursor: pointer;"
       height="33"
       width="11"
       y="393"
       x="445"
       fill="rgb(51, 165, 255)" />
    <rect
       id="rect371"
       style="opacity: 0.4; cursor: pointer;"
       height="39"
       width="11"
       y="511"
       x="456"
       fill="rgb(51, 165, 255)" />
    <rect
       id="rect373"
       style="opacity: 0.4; cursor: pointer;"
       height="26"
       width="11"
       y="445"
       x="467"
       fill="#FFE333" />
    <rect
       id="rect375"
       style="opacity: 0.4; cursor: pointer;"
       height="170"
       width="11"
       y="223"
       x="478"
       fill="#FFE333" />
    <rect
       id="rect377"
       style="opacity: 0.4; cursor: pointer;"
       height="190"
       width="11"
       y="124"
       x="489"
       fill="#FFE333" />
    <rect
       id="rect379"
       style="opacity: 0.4; cursor: pointer;"
       height="91"
       width="11"
       y="354"
       x="500"
       fill="rgb(51, 165, 255)" />
    <rect
       id="rect381"
       style="opacity: 0.4; cursor: pointer;"
       height="8"
       width="11"
       y="424"
       x="511"
       fill="#FFE333" />
    <rect
       id="rect383"
       style="opacity: 0.4; cursor: pointer;"
       height="125"
       width="11"
       y="346"
       x="522"
       fill="#FFE333" />
    <rect
       id="rect385"
       style="opacity: 0.4; cursor: pointer;"
       height="78"
       width="11"
       y="354"
       x="533"
       fill="#FFE333" />
    <rect
       id="rect387"
       style="opacity: 0.4; cursor: pointer;"
       height="85"
       width="11"
       y="432"
       x="544"
       fill="rgb(51, 165, 255)" />
    <rect
       id="rect389"
       style="opacity: 0.4; cursor: pointer;"
       height="50"
       width="11"
       y="471"
       x="555"
       fill="rgb(51, 165, 255)" />
    <rect
       id="rect391"
       style="opacity: 0.4; cursor: pointer;"
       height="202"
       width="11"
       y="269"
       x="566"
       fill="#FFE333" />
    <rect
       id="rect393"
       style="opacity: 0.4; cursor: pointer;"
       height="78"
       width="11"
       y="354"
       x="577"
       fill="#FFE333" />
    <rect
       id="rect395"
       style="opacity: 0.4; cursor: pointer;"
       height="134"
       width="11"
       y="259"
       x="588"
       fill="#FFE333" />
    <rect
       id="rect397"
       style="opacity: 0.4; cursor: pointer;"
       height="152"
       width="11"
       y="241"
       x="599"
       fill="#FFE333" />
    <rect
       id="rect399"
       style="opacity: 0.4; cursor: pointer;"
       height="34"
       width="11"
       y="432"
       x="610"
       fill="rgb(51, 165, 255)" />
    <rect
       id="rect401"
       style="opacity: 0.4; cursor: pointer;"
       height="33"
       width="11"
       y="399"
       x="621"
       fill="#FFE333" />
    <rect
       id="rect403"
       style="opacity: 0.4; cursor: pointer;"
       height="5"
       width="11"
       y="466"
       x="632"
       fill="#FFE333" />
    <rect
       id="rect405"
       style="opacity: 0.4; cursor: pointer;"
       height="135"
       width="11"
       y="297"
       x="643"
       fill="#FFE333" />
    <rect
       id="rect407"
       style="opacity: 0.4; cursor: pointer;"
       height="141"
       width="11"
       y="213"
       x="654"
       fill="#FFE333" />
    <rect
       id="rect409"
       style="opacity: 0.4; cursor: pointer;"
       height="191"
       width="11"
       y="241"
       x="665"
       fill="#FFE333" />
    <rect
       id="rect411"
       style="opacity: 0.4; cursor: pointer;"
       height="86"
       width="11"
       y="346"
       x="676"
       fill="#FFE333" />
    <rect
       id="rect413"
       style="opacity: 0.4; cursor: pointer;"
       height="11"
       width="11"
       y="382"
       x="687"
       fill="#FFE333" />
    <rect
       id="rect415"
       style="opacity: 0.4; cursor: pointer;"
       height="152"
       width="11"
       y="241"
       x="698"
       fill="#FFE333" />
    <rect
       id="rect417"
       style="opacity: 0.4; cursor: pointer;"
       height="50"
       width="11"
       y="382"
       x="709"
       fill="#FFE333" />
    <rect
       id="rect419"
       style="opacity: 0.4; cursor: pointer;"
       height="89"
       width="11"
       y="382"
       x="720"
       fill="#FFE333" />
    <rect
       id="rect421"
       style="opacity: 0.4; cursor: pointer;"
       height="17"
       width="11"
       y="393"
       x="731"
       fill="rgb(51, 165, 255)" />
    <rect
       id="rect423"
       style="opacity: 0.4; cursor: pointer;"
       height="61"
       width="11"
       y="410"
       x="742"
       fill="#FFE333" />
    <rect
       id="rect425"
       style="opacity: 0.4; cursor: pointer;"
       height="78"
       width="11"
       y="354"
       x="753"
       fill="#FFE333" />
    <rect
       id="rect427"
       style="opacity: 0.4; cursor: pointer;"
       height="11"
       width="11"
       y="511"
       x="764"
       fill="rgb(51, 165, 255)" />
    <rect
       id="rect429"
       style="opacity: 0.4; cursor: pointer;"
       height="78"
       width="11"
       y="354"
       x="775"
       fill="#FFE333" />
    <rect
       id="rect431"
       style="opacity: 0.4; cursor: pointer;"
       height="78"
       width="11"
       y="354"
       x="786"
       fill="#FFE333" />
    <rect
       id="rect433"
       style="opacity: 0.4; cursor: pointer;"
       height="45"
       width="11"
       y="466"
       x="797"
       fill="#FFE333" />
    <rect
       id="rect435"
       style="opacity: 0.4; cursor: pointer;"
       height="73"
       width="11"
       y="438"
       x="808"
       fill="#FFE333" />
    <rect
       id="rect437"
       style="opacity: 0.4; cursor: pointer;"
       height="236"
       width="11"
       y="157"
       x="819"
       fill="#FFE333" />
    <rect
       id="rect439"
       style="opacity: 0.4; cursor: pointer;"
       height="56"
       width="11"
       y="455"
       x="830"
       fill="#FFE333" />
    <rect
       id="rect441"
       style="opacity: 0.4; cursor: pointer;"
       height="6"
       width="11"
       y="505"
       x="841"
       fill="#FFE333" />
    <rect
       id="rect443"
       style="opacity: 0.4; cursor: pointer;"
       height="146"
       width="11"
       y="365"
       x="852"
       fill="#FFE333" />
    <rect
       id="rect445"
       style="opacity: 0.4; cursor: pointer;"
       height="123"
       width="11"
       y="388"
       x="863"
       fill="#FFE333" />
    <rect
       id="rect447"
       style="opacity: 0.4; cursor: pointer;"
       height="30"
       width="11"
       y="481"
       x="874"
       fill="#FFE333" />
    <rect
       id="rect449"
       style="opacity: 0.4; cursor: pointer;"
       height="48"
       width="11"
       y="502"
       x="885"
       fill="#FFE333" />
    <rect
       id="rect451"
       style="opacity: 0.4; cursor: pointer;"
       height="56"
       width="11"
       y="455"
       x="896"
       fill="#FFE333" />
    <rect
       id="rect453"
       style="opacity: 0.4; cursor: pointer;"
       height="23"
       width="11"
       y="527"
       x="907"
       fill="#FFE333" />
    <rect
       id="rect455"
       style="opacity: 0.4; cursor: pointer;"
       height="123"
       width="11"
       y="427"
       x="918"
       fill="#FFE333" />
    <rect
       id="rect457"
       style="opacity: 0.4; cursor: pointer;"
       height="96"
       width="11"
       y="375"
       x="929"
       fill="#FFE333" />
  </g>
  <text
     id="text461"
     style="font-style: italic;"
     text-anchor="middle"
     y="25"
     x="50">Fréquence</text>
  <text
     id="text463"
     style="font-style: italic;"
     text-anchor="end"
     y="580"
     x="960">Année</text>
  <g
     id="g473"
     style="opacity: 1;"
     class="legend">
    <rect
       id="rect465"
       fill="#DBA520"
       height="3"
       width="40"
       y="13"
       x="320" />
    <text
       id="text467"
       alignment-baseline="central"
       text-anchor="start"
       y="20"
       x="370">Films nommés aux Oscars</text>
    <rect
       id="rect469"
       fill="#0000BB"
       height="3"
       width="40"
       y="13"
       x="620" />
    <text
       id="text471"
       alignment-baseline="central"
       text-anchor="start"
       y="20"
       x="670">Films du top 20 au box office</text>
  </g>
</svg>
