<?xml version="1.0" encoding="utf-8"?>
<!-- Generator: Adobe Illustrator 22.1.0, SVG Export Plug-In . SVG Version: 6.00 Build 0)  -->
<svg version="1.1" id="Capa_1" xmlns="http://www.w3.org/2000/svg" xmlns:xlink="http://www.w3.org/1999/xlink" x="0px" y="0px"
	 viewBox="0 0 61.5 61.5" style="enable-background:new 0 0 61.5 61.5;" xml:space="preserve">
<style type="text/css">
	.st0{fill:#DBA520;}
	.st1{fill:#242424;}
</style>
<g>
	<g>
		<path class="st0" d="M22.8,47.6c0,1.2,3.6,2.2,8,2.2s8-1,8-2.2c0-0.9-2.2-1.7-5.4-2c0.1-0.4,0.1-0.7,0.1-0.7s-0.7-3.2,0.2-5
			s0.6-4.6,0.3-5c-0.2-0.4-0.5-2.5,0-3.3s0.7-2.7,1-5.7c0.3-2.9-0.5-3.5-0.5-3.5V20H35c1.7-0.1,1.9-3.6,2.1-5.2c0.2-1.6,1.3-3,0-4.9
			c-1.3-1.8-4.6-2.5-4.6-2.5l0.1-1.7c0,0,0.9-0.7,0.8-3.3C33.2,0,31.1,0,31.1,0h-0.7c0,0-2.1,0-2.2,2.5C28.1,5,29,5.8,29,5.8v1.7
			c0,0-3.3,0.7-4.6,2.5s-0.2,3.3,0,4.9s0.5,5,2.1,5.2H27v2.4c0,0-0.8,0.6-0.5,3.5s0.4,4.8,1,5.7c0.5,0.8,0.2,2.9,0,3.3
			c-0.2,0.4-0.6,3.1,0.3,5c0.9,1.8,0.2,5,0.2,5s0,0.3,0.1,0.7C25,45.9,22.8,46.7,22.8,47.6z"/>
		<path class="st1" d="M39.8,52.3c0.3-0.4,0.4-0.8,0.4-1.3c0-2-0.9-2.5-1.1-2.6c-2,1.8-7.3,1.9-8.6,1.9c-1.2,0-6.2-0.1-8.4-1.8
			c-0.3,0.3-0.8,0.9-0.8,2.4c0,0.5,0.1,0.9,0.4,1.3c-2.1,0.6-3.5,1.4-3.5,2.3v4.2c0,0,2.5,2.9,13.2,2.7C42.2,61.3,43.2,58,43.2,58
			v-3.7l0,0C43,53.5,41.7,52.8,39.8,52.3z"/>
	</g>
</g>
</svg>
